<?xml version="1.0" standalone="no"?>
<!DOCTYPE svg PUBLIC "-//W3C//DTD SVG 20010904//EN"
"http://www.w3.org/TR/2001/REC-SVG-20010904/DTD/svg10.dtd">
<svg version="1.0"
    xmlns="http://www.w3.org/2000/svg" width="209.000000pt" height="117.000000pt" viewBox="0 0 209.000000 117.000000" preserveAspectRatio="xMidYMid meet">

    <g transform="translate(0.000000,117.000000) scale(0.100000,-0.100000)" fill="#000000" stroke="white">
        <path d="M1080 1023 c-33 -12 -40 -36 -40 -140 0 -90 3 -106 20 -123 16 -16
29 -19 62 -15 39 5 45 2 85 -37 44 -43 49 -42 55 12 3 25 4 25 100 26 111 1
128 10 128 61 0 43 -23 40 -30 -3 l-5 -29 -113 -3 c-108 -3 -112 -3 -112 -25
l-1 -22 -18 23 c-15 17 -30 22 -68 22 -27 0 -54 5 -61 12 -14 14 -17 194 -4
202 14 8 328 19 355 12 24 -6 26 -11 29 -73 2 -43 8 -68 16 -71 10 -3 12 14
10 74 -4 104 -3 104 -223 103 -93 0 -177 -3 -185 -6z"/>
        <path d="M1110 940 c0 -5 25 -10 55 -10 30 0 55 5 55 10 0 6 -25 10 -55 10
-30 0 -55 -4 -55 -10z"/>
        <path d="M1240 940 c0 -6 37 -10 90 -10 53 0 90 4 90 10 0 6 -37 10 -90 10
-53 0 -90 -4 -90 -10z"/>
        <path d="M724 932 c-25 -16 -34 -55 -34 -140 0 -129 7 -136 139 -140 l101 -4
0 -29 c0 -38 21 -38 54 2 21 25 35 31 81 36 41 4 60 11 70 27 8 11 15 24 15
28 0 14 -31 8 -36 -7 -4 -11 -21 -15 -59 -15 -40 0 -56 -5 -71 -21 -17 -19
-19 -19 -25 -2 -5 15 -21 19 -115 23 l-109 5 -3 99 c-2 69 1 102 9 107 7 4 73
8 148 8 74 1 137 3 139 6 2 2 1 8 -3 14 -7 13 -283 15 -301 3z"/>
        <path d="M1115 890 c-3 -5 0 -13 8 -15 24 -10 202 -1 202 10 0 14 -201 19
-210 5z"/>
        <path d="M1350 886 c0 -12 10 -16 36 -16 45 0 42 24 -4 28 -24 2 -32 -1 -32
-12z"/>
        <path d="M765 871 c-12 -21 7 -31 56 -31 43 0 50 3 47 18 -2 13 -15 18 -50 20
-25 2 -49 -2 -53 -7z"/>
        <path d="M900 860 c0 -17 7 -20 49 -20 51 0 75 15 50 31 -8 5 -33 9 -56 9 -36
0 -43 -3 -43 -20z"/>
        <path d="M1117 834 c-17 -17 13 -24 109 -24 86 0 104 3 104 15 0 12 -18 15
-103 15 -57 0 -107 -3 -110 -6z"/>
        <path d="M767 813 c-19 -19 5 -23 128 -23 113 0 135 2 135 15 0 13 -21 15
-128 15 -71 0 -132 -3 -135 -7z"/>
        <path d="M762 748 c7 -20 68 -23 68 -4 0 12 -10 16 -36 16 -24 0 -34 -4 -32
-12z"/>
        <path d="M850 745 c0 -13 11 -15 65 -13 87 4 88 22 3 26 -57 2 -68 0 -68 -13z"/>
        <path d="M1290 627 c-60 -21 -106 -118 -63 -134 9 -4 46 -1 82 5 60 10 67 10
81 -7 8 -10 23 -21 33 -24 9 -4 17 -14 17 -22 0 -13 6 -15 30 -10 23 5 32 3
37 -11 3 -9 1 -24 -5 -33 -7 -9 -17 -27 -23 -41 -38 -89 -146 -112 -210 -44
-19 20 -25 40 -29 91 -7 90 -30 99 -30 13 0 -103 47 -161 143 -176 49 -8 116
32 144 87 13 24 28 48 33 53 18 18 11 75 -9 86 -16 8 -18 17 -14 50 13 97 -99
157 -217 117z"/>
        <path d="M740 563 c-52 -19 -104 -109 -79 -139 10 -12 8 -18 -9 -30 -28 -19
-29 -65 -3 -102 10 -15 26 -40 35 -55 29 -47 73 -69 134 -64 94 7 142 66 142
174 0 49 -3 63 -15 63 -12 0 -15 -13 -15 -60 0 -106 -48 -157 -137 -147 -50 5
-80 28 -100 76 -8 19 -21 40 -28 48 -25 24 -7 46 33 40 29 -5 39 -1 64 23 26
27 36 30 91 30 97 0 162 44 169 115 l3 30 -135 2 c-74 1 -142 -1 -150 -4z"/>
        <path d="M1277 453 c-11 -10 -8 -43 3 -43 6 0 10 11 10 25 0 26 -2 29 -13 18z"/>
        <path d="M1330 435 c0 -14 5 -25 10 -25 6 0 10 11 10 25 0 14 -4 25 -10 25 -5
0 -10 -11 -10 -25z"/>
        <path d="M814 375 c-3 -8 -3 -19 1 -25 11 -18 25 -11 25 15 0 27 -17 34 -26
10z"/>
        <path d="M874 375 c-3 -8 -3 -19 1 -25 11 -18 25 -11 25 15 0 27 -17 34 -26
10z"/>
        <path d="M1370 345 c-7 -8 -21 -15 -32 -15 -11 0 -18 -5 -15 -12 9 -27 77 -1
77 28 0 18 -14 18 -30 -1z"/>
        <path d="M1864 289 c-63 -24 -132 -82 -150 -126 -14 -31 -17 -33 -67 -33 -66
0 -504 -35 -702 -57 -88 -9 -288 -19 -482 -22 -328 -6 -333 -6 -355 -28 l-22
-23 1002 0 1002 0 0 74 c0 55 -4 75 -14 79 -9 4 -13 1 -10 -7 6 -16 -33 -66
-51 -66 -20 0 -45 39 -38 59 3 9 13 24 21 34 14 15 13 17 -2 17 -10 0 -26 -5
-37 -11 -24 -12 -79 -2 -79 14 0 7 16 36 35 65 41 60 34 64 -51 31z m57 -177
c24 -16 50 -36 58 -45 12 -16 8 -17 -47 -17 -58 0 -60 1 -71 31 -23 67 -9 75
60 31z"/>
        <path d="M770 282 c0 -23 27 -42 60 -42 26 0 22 23 -6 29 -10 1 -27 10 -36 19
-17 14 -18 13 -18 -6z"/>
    </g>
</svg>
