<?xml version="1.0" standalone="no"?>
<!DOCTYPE svg PUBLIC "-//W3C//DTD SVG 20010904//EN"
 "http://www.w3.org/TR/2001/REC-SVG-20010904/DTD/svg10.dtd">
<svg version="1.0" xmlns="http://www.w3.org/2000/svg"
 width="265.000000pt" height="171.000000pt" viewBox="0 0 265.000000 171.000000"
 preserveAspectRatio="xMidYMid meet">

<g transform="translate(0.000000,171.000000) scale(0.100000,-0.100000)"
fill="#000000" stroke="none">
<path d="M1 1694 c0 -11 3 -14 6 -6 3 7 2 16 -1 19 -3 4 -6 -2 -5 -13z"/>
<path d="M548 1463 c-17 -4 -18 -23 -16 -231 2 -173 3 -192 5 -82 3 100 7 147
16 152 21 13 64 9 96 -9 29 -17 32 -17 66 1 20 11 50 38 68 59 17 22 47 46 66
55 32 13 34 16 16 23 -32 12 -62 10 -99 -7 -44 -22 -84 -12 -92 21 -6 23 -11
25 -58 24 -28 -1 -59 -3 -68 -6z"/>
<path d="M971 1322 c-6 -11 -6 -24 0 -33 6 -10 9 -11 9 -1 0 7 5 10 10 7 6 -3
10 -1 10 4 0 16 16 13 35 -5 21 -22 31 -10 17 21 -14 31 -66 35 -81 7z"/>
<path d="M823 1235 c-56 -49 -108 -128 -99 -151 9 -23 21 -16 50 31 16 25 33
45 37 45 14 0 11 -9 -20 -64 -26 -47 -29 -62 -35 -181 -4 -71 -13 -158 -21
-193 -19 -82 -19 -82 10 -82 22 0 27 8 49 83 14 45 32 106 39 136 20 79 31 49
35 -96 4 -107 6 -122 22 -126 22 -6 25 4 40 128 7 52 8 134 5 195 l-7 105 29
37 30 37 42 -38 c24 -21 61 -47 83 -57 34 -15 41 -16 49 -3 12 20 11 29 -4 29
-21 0 -94 67 -128 116 l-31 45 -19 -25 c-28 -36 -53 -24 -44 22 4 24 2 38 -7
43 -27 17 -55 8 -105 -36z"/>
<path d="M1435 1070 c-4 -6 1 -31 11 -56 20 -53 44 -56 58 -6 8 28 6 35 -14
52 -25 22 -45 26 -55 10z"/>
<path d="M534 710 c0 -58 1 -81 3 -52 2 28 2 76 0 105 -2 28 -3 5 -3 -53z"/>
<path d="M1398 714 c-26 -25 -55 -64 -65 -86 l-18 -40 -370 6 -370 6 -75 -28
c-66 -24 -75 -31 -75 -52 l0 -25 279 2 c159 1 281 5 285 11 9 13 61 25 101 23
32 -2 171 22 207 36 13 5 14 0 8 -28 -4 -19 -11 -35 -15 -37 -4 -2 -6 -12 -3
-23 4 -15 2 -18 -11 -13 -10 4 -16 1 -16 -9 0 -9 13 -18 30 -22 33 -7 50 -1
50 20 0 8 11 43 25 78 23 56 31 66 72 86 25 12 47 21 48 19 2 -2 11 -57 20
-123 9 -66 18 -129 20 -140 3 -11 2 -14 -1 -7 -3 6 -10 10 -15 6 -5 -3 -9 7
-10 23 l0 28 -10 -25 c-8 -19 -6 -27 6 -37 10 -6 14 -16 10 -22 -4 -7 8 -11
34 -11 39 0 41 1 42 33 2 30 2 30 6 5 4 -24 9 -28 37 -28 39 0 45 -5 39 -31
-5 -18 -14 -20 -117 -18 -82 1 -122 -3 -150 -15 -49 -20 -56 -20 -56 3 0 24
43 53 66 44 14 -5 16 -3 11 12 -6 15 -5 16 7 6 16 -14 56 1 56 20 0 6 -4 8 -9
5 -5 -4 -6 4 -3 16 5 22 5 22 -12 6 -9 -10 -14 -23 -10 -29 4 -8 3 -9 -4 -5
-7 4 -12 13 -12 20 0 23 -155 28 -212 8 -27 -9 -48 -19 -48 -22 0 -3 -220 -4
-490 -2 -331 2 -490 -1 -490 -8 0 -6 -37 -10 -95 -10 l-95 0 0 -170 0 -170
1325 0 1325 0 0 110 0 110 -387 1 c-214 0 -403 2 -420 3 -18 2 -33 0 -33 -5 0
-5 -35 -9 -79 -9 -44 0 -97 -7 -121 -15 -58 -20 -82 -20 -78 3 2 9 10 16 17
14 8 -2 10 4 6 18 -6 18 -2 20 42 19 65 0 93 4 93 14 0 4 5 5 12 1 8 -5 9 -2
5 10 -4 9 -3 15 2 11 10 -6 51 41 51 59 0 6 -4 5 -9 -3 -7 -10 -10 -11 -16 -1
-6 10 -12 8 -23 -6 -14 -18 -14 -18 -9 4 5 23 3 24 -39 20 -39 -3 -44 -1 -44
17 0 17 -2 17 -10 5 -8 -12 -10 -9 -10 12 0 14 -5 28 -12 30 -7 3 -14 32 -16
72 l-4 69 28 -5 c16 -3 35 -7 43 -9 9 -3 18 12 27 46 19 69 18 75 -11 75 -14
0 -25 4 -25 9 0 5 -9 7 -20 4 -17 -5 -20 0 -20 27 0 31 -1 32 -34 26 -22 -4
-48 -1 -72 9 -20 8 -37 15 -38 15 0 0 -22 -21 -48 -46z m198 -91 c-10 -10 -19
5 -10 18 6 11 8 11 12 0 2 -7 1 -15 -2 -18z m-181 -253 c3 -5 1 -10 -4 -10 -6
0 -11 5 -11 10 0 6 2 10 4 10 3 0 8 -4 11 -10z m-170 -20 c8 -13 -5 -13 -25 0
-13 8 -13 10 2 10 9 0 20 -4 23 -10z m135 1 c22 -6 20 -8 -18 -14 -44 -8 -62
-3 -62 14 0 10 43 10 80 0z m302 -53 c-8 -8 -9 -4 -5 13 4 13 8 18 11 10 2 -7
-1 -18 -6 -23z m-82 -28 c0 -5 -4 -10 -10 -10 -5 0 -10 5 -10 10 0 6 5 10 10
10 6 0 10 -4 10 -10z m-154 -140 c11 -7 29 -25 39 -41 11 -15 22 -26 25 -24 3
2 5 -8 5 -21 l0 -24 -248 0 -248 0 18 30 c23 40 53 47 108 26 41 -16 45 -16
69 0 14 9 26 20 26 25 0 10 54 39 90 49 30 8 87 -2 116 -20z"/>
<path d="M1590 529 c0 -5 5 -7 10 -4 6 3 10 8 10 11 0 2 -4 4 -10 4 -5 0 -10
-5 -10 -11z"/>
<path d="M2219 493 c-13 -16 -12 -17 4 -4 16 13 21 21 13 21 -2 0 -10 -8 -17
-17z"/>
<path d="M1003 479 c-18 -5 -34 -13 -37 -17 -8 -13 164 -3 219 13 l50 13 -100
0 c-55 0 -114 -4 -132 -9z"/>
<path d="M1450 460 c-8 -5 -12 -12 -9 -15 4 -3 12 1 19 10 14 17 11 19 -10 5z"/>
<path d="M2510 461 c0 -5 5 -13 10 -16 6 -3 10 -2 10 4 0 5 -4 13 -10 16 -5 3
-10 2 -10 -4z"/>
<path d="M2561 451 c-9 -6 -11 -18 -7 -36 5 -19 4 -25 -5 -19 -8 4 -9 3 -5 -5
4 -6 11 -9 16 -6 4 3 10 -2 14 -10 3 -8 11 -15 18 -14 10 0 10 2 1 6 -22 8
-14 21 10 17 13 -3 9 1 -10 10 -33 15 -44 41 -20 49 6 2 10 7 7 10 -3 3 -12 2
-19 -2z"/>
<path d="M1923 422 c-13 -2 -23 -8 -23 -13 0 -9 37 -3 49 7 8 7 -4 10 -26 6z"/>
<path d="M1970 426 c0 -4 6 -14 14 -21 12 -12 15 -12 20 2 4 9 4 18 1 21 -3 3
-5 0 -5 -8 0 -10 -3 -10 -15 0 -8 7 -15 9 -15 6z"/>
<path d="M1820 410 c0 -5 -6 -7 -13 -4 -8 3 -14 -2 -14 -11 0 -18 -1 -18 31
-5 28 10 35 30 11 30 -8 0 -15 -4 -15 -10z"/>
<path d="M2628 413 c6 -2 9 -10 6 -15 -4 -7 -2 -8 4 -4 18 11 14 26 -5 25 -11
0 -13 -3 -5 -6z"/>
<path d="M1953 385 c0 -9 4 -14 9 -13 5 2 10 8 10 13 0 5 -5 11 -10 13 -5 1
-9 -4 -9 -13z"/>
</g>
</svg>
