<?xml version="1.0" standalone="no"?>
<!DOCTYPE svg PUBLIC "-//W3C//DTD SVG 20010904//EN"
 "http://www.w3.org/TR/2001/REC-SVG-20010904/DTD/svg10.dtd">
<svg version="1.0" xmlns="http://www.w3.org/2000/svg"
 width="262.000000pt" height="124.000000pt" viewBox="0 0 262.000000 124.000000"
 preserveAspectRatio="xMidYMid meet">

<g transform="translate(0.000000,124.000000) scale(0.100000,-0.100000)"
fill="#000000" stroke="none">
<path d="M1557 984 c-4 -4 -7 -48 -7 -98 l0 -91 -51 -28 c-28 -16 -52 -27 -53
-25 -1 2 -8 15 -16 31 -15 29 -56 37 -78 15 -16 -16 -15 -59 3 -81 10 -15 11
-24 3 -43 -9 -18 -8 -28 0 -36 9 -9 14 -4 23 20 9 25 27 39 100 77 106 55 111
37 8 -27 -53 -33 -69 -47 -65 -61 5 -21 -12 -77 -24 -77 -5 0 -15 -3 -24 -6
-12 -5 -16 0 -16 21 0 16 -5 25 -12 23 -16 -6 -38 -85 -38 -141 0 -33 -9 -66
-30 -107 -27 -53 -34 -60 -60 -60 -31 0 -60 -30 -60 -62 0 -16 -10 -18 -68
-18 -77 0 -102 -16 -102 -63 0 -20 -5 -27 -20 -27 -11 0 -20 -7 -20 -15 0 -13
51 -15 400 -15 349 0 400 2 400 15 0 9 -9 15 -25 15 l-25 0 0 184 c0 206 4
196 -76 196 l-44 0 0 107 c0 59 5 122 12 140 10 27 10 38 0 53 -7 11 -12 22
-12 25 0 3 38 5 84 5 50 0 88 4 91 11 4 6 -4 22 -16 36 l-24 25 23 18 c45 37
24 50 -82 50 -40 0 -77 5 -82 10 -6 6 -13 7 -17 4z m138 -64 c-17 -19 -17 -21
0 -40 18 -20 17 -20 -48 -20 l-67 0 0 40 0 40 67 0 c65 0 66 0 48 -20z m-278
-194 c-9 -24 -32 -19 -45 8 -8 17 -7 27 1 35 15 15 52 -21 44 -43z m118 -229
c-9 -5 -20 -18 -25 -30 -8 -21 -9 -21 -9 -2 -1 11 -15 37 -32 58 -30 37 -30
38 -17 80 10 29 26 50 54 69 l39 26 3 -96 c2 -79 0 -97 -13 -105z m132 -204
l2 -173 -65 0 -64 0 0 45 c0 32 -4 45 -14 45 -17 0 -26 -22 -26 -61 l0 -30
-66 3 -66 3 0 105 0 105 66 3 66 3 0 -40 c0 -23 7 -46 16 -55 24 -25 22 -33
24 111 0 53 3 100 6 105 3 5 31 8 62 6 l57 -3 2 -172z m-238 90 c1 -7 -6 -13
-15 -13 -11 0 -14 5 -10 16 3 9 6 23 7 32 0 14 2 13 9 -3 5 -11 9 -26 9 -32z
m78 0 c-3 -10 -5 -2 -5 17 0 19 2 27 5 18 2 -10 2 -26 0 -35z m-177 -193 l0
-70 -65 0 -65 0 0 70 0 70 65 0 65 0 0 -70z m-168 -35 c3 -13 3 -27 0 -30 -3
-3 -36 -5 -74 -5 -65 0 -68 1 -68 23 0 34 6 37 76 37 58 0 62 -2 66 -25z"/>
<path d="M198 221 c-31 -10 -106 -60 -131 -89 -19 -20 -18 -21 3 -44 12 -13
33 -38 47 -56 l25 -32 104 0 104 0 -21 43 c-21 41 -49 128 -49 156 0 9 8 12
26 8 14 -2 22 -1 17 3 -13 13 -95 20 -125 11z"/>
<path d="M376 172 c65 -48 114 -108 114 -142 l0 -30 412 0 c226 0 409 2 407 4
-11 10 -558 73 -719 82 l-115 7 -58 54 c-32 29 -63 53 -69 53 -6 0 7 -13 28
-28z"/>
</g>
</svg>
