<?xml version="1.0" standalone="no"?>
<!DOCTYPE svg PUBLIC "-//W3C//DTD SVG 20010904//EN"
"http://www.w3.org/TR/2001/REC-SVG-20010904/DTD/svg10.dtd">
<svg version="1.0"
    xmlns="http://www.w3.org/2000/svg" width="296.000000pt" height="167.000000pt" viewBox="0 0 296.000000 167.000000" preserveAspectRatio="xMidYMid meet">

    <g transform="translate(0.000000,167.000000) scale(0.100000,-0.100000)" fill="#000000" stroke="none">
        <path d="M1776 1390 c-107 -275 -109 -280 -95 -316 18 -48 47 -58 92 -34 l35
19 7 -27 c15 -63 68 -81 116 -39 22 19 140 303 268 650 l11 27 -163 0 -163 0
-108 -280z"/>
        <path d="M1630 707 c0 -19 -3 -49 -6 -67 -7 -31 -7 -32 -52 -25 -43 6 -193 7
-617 1 -110 -2 -370 -4 -577 -5 l-378 -1 0 -305 0 -305 1480 0 1480 0 0 305 0
305 -364 0 c-376 0 -404 -3 -359 -39 11 -9 44 -49 73 -90 l53 -73 -23 -18 -23
-17 23 -65 23 -65 -27 -40 c-25 -38 -26 -43 -16 -109 5 -38 10 -72 10 -76 0
-5 -378 -8 -840 -8 l-840 0 1 23 c0 12 4 47 8 77 8 50 6 58 -19 95 l-28 41 24
58 c13 33 24 62 24 65 0 4 -11 13 -24 21 l-24 15 58 80 58 80 353 3 c480 5
468 5 463 13 -2 4 20 10 49 13 49 6 56 11 90 56 20 27 37 52 37 55 0 5 -23 16
-67 29 -21 7 -23 4 -23 -27z"/>
    </g>
</svg>
