<?xml version="1.0" standalone="no"?>
<!DOCTYPE svg PUBLIC "-//W3C//DTD SVG 20010904//EN"
 "http://www.w3.org/TR/2001/REC-SVG-20010904/DTD/svg10.dtd">
<svg version="1.0" xmlns="http://www.w3.org/2000/svg"
 width="619.000000pt" height="528.000000pt" viewBox="0 0 619.000000 528.000000"
 preserveAspectRatio="xMidYMid meet">

<g transform="translate(0.000000,528.000000) scale(0.100000,-0.100000)"
fill="#000000" stroke="none">
<path d="M2945 5171 c-221 -63 -385 -229 -440 -446 -19 -76 -19 -224 0 -300
40 -152 151 -301 287 -383 150 -91 393 -105 565 -31 160 68 301 238 348 420
27 102 17 262 -22 361 -77 194 -238 336 -434 383 -85 20 -228 18 -304 -4z
m275 -21 c215 -48 384 -205 446 -416 26 -87 24 -239 -4 -329 -66 -212 -234
-360 -459 -403 -229 -44 -484 75 -604 283 -72 124 -95 315 -55 449 60 202 227
363 424 410 68 17 189 19 252 6z"/>
<path d="M3157 4883 c-2 -5 -7 -25 -11 -46 -5 -25 -22 -53 -51 -85 -25 -26
-52 -63 -61 -82 -32 -67 -66 -90 -77 -50 -5 19 -12 21 -69 18 l-63 -3 -3 -147
-3 -148 71 0 c68 0 70 1 70 25 0 30 8 31 105 10 142 -30 265 -13 265 38 0 13
9 32 20 42 13 12 18 25 14 41 -3 13 -2 29 2 36 12 18 14 112 3 129 -6 11 -30
13 -98 11 -57 -2 -92 1 -96 8 -4 6 5 29 19 50 14 21 28 50 31 63 8 29 -16 81
-40 91 -21 8 -23 8 -28 -1z m-249 -336 c2 -12 -3 -17 -17 -17 -12 0 -21 6 -21
13 0 31 32 34 38 4z"/>
<path d="M595 4571 c-203 -59 -353 -202 -419 -401 -23 -70 -28 -103 -29 -185
0 -183 55 -318 183 -446 189 -188 461 -232 707 -113 136 65 263 214 309 361
105 342 -91 699 -433 787 -82 21 -240 20 -318 -3z m305 -26 c190 -50 343 -192
412 -381 15 -42 23 -90 26 -167 4 -95 1 -117 -22 -190 -77 -245 -301 -411
-556 -411 -160 0 -295 57 -411 173 -117 117 -169 241 -169 405 0 147 38 254
132 373 75 95 182 164 307 199 63 17 215 17 281 -1z"/>
<path d="M925 4280 c-11 -5 -76 -16 -145 -25 -135 -17 -156 -26 -139 -56 8
-16 21 -19 86 -19 l76 0 129 -127 c71 -71 131 -130 133 -132 7 -6 66 93 77
132 l12 38 -100 100 c-54 54 -101 99 -104 98 -3 0 -14 -4 -25 -9z"/>
<path d="M487 4172 c-53 -53 -97 -100 -97 -104 0 -4 18 -28 40 -53 22 -25 40
-53 40 -61 0 -16 16 -19 25 -4 10 17 54 11 75 -10 11 -11 30 -20 43 -20 34 0
67 -28 67 -56 0 -17 29 -54 104 -130 94 -97 105 -105 125 -95 11 7 21 17 21
24 0 7 -34 46 -75 87 -41 41 -75 82 -75 92 0 34 38 18 87 -36 74 -84 139 -137
157 -130 35 14 16 50 -78 143 -87 87 -107 121 -71 121 7 0 47 -34 88 -76 78
-78 109 -91 115 -47 3 17 -31 57 -139 168 l-142 145 -74 0 c-70 0 -77 2 -105
30 -30 30 -32 47 -13 93 17 41 -26 11 -118 -81z"/>
<path d="M496 3891 c-19 -20 -14 -41 8 -41 18 0 49 37 41 49 -10 17 -30 13
-49 -8z"/>
<path d="M573 3839 c-37 -34 -39 -41 -18 -59 13 -11 21 -6 50 24 19 21 35 44
35 52 0 24 -33 16 -67 -17z"/>
<path d="M631 3766 c-25 -26 -23 -56 3 -56 18 0 58 49 53 64 -7 21 -33 17 -56
-8z"/>
<path d="M698 3699 c-24 -14 -23 -49 1 -49 24 0 43 23 35 44 -7 18 -12 19 -36
5z"/>
<path d="M767 3642 c-21 -23 -21 -32 -3 -32 19 0 36 23 27 38 -6 9 -12 8 -24
-6z"/>
<path d="M5275 4572 c-112 -34 -221 -102 -297 -186 -48 -52 -113 -176 -133
-252 -19 -75 -19 -233 0 -309 84 -332 418 -530 749 -445 101 26 182 69 260
142 207 189 260 474 136 733 -67 138 -176 237 -335 300 -61 25 -85 29 -195 32
-98 2 -138 -1 -185 -15z m309 -28 c191 -49 355 -207 416 -401 30 -93 30 -242
1 -333 -62 -196 -229 -352 -431 -401 -30 -7 -91 -13 -135 -13 -262 1 -495 186
-561 447 -22 84 -15 240 15 321 66 186 230 337 413 382 75 18 209 17 282 -2z"/>
<path d="M5405 4310 c-28 -31 -10 -74 32 -78 25 -3 35 2 49 22 15 24 15 28 0
51 -20 31 -56 33 -81 5z m61 -21 c8 -14 -21 -43 -35 -35 -6 4 -11 16 -11 27 0
21 34 27 46 8z"/>
<path d="M5374 4208 c-60 -69 -59 -68 -38 -67 25 1 80 67 67 80 -6 6 -16 1
-29 -13z"/>
<path d="M5487 4223 c-9 -14 56 -87 72 -82 8 3 -1 20 -26 49 -23 25 -42 39
-46 33z"/>
<path d="M5104 4075 c-15 -23 -15 -27 0 -50 l16 -25 325 0 c281 0 326 2 339
16 9 8 16 24 16 34 0 10 -7 26 -16 34 -13 14 -58 16 -339 16 l-325 0 -16 -25z"/>
<path d="M5136 3943 c44 -189 56 -230 71 -240 12 -10 77 -13 238 -13 199 0
223 2 237 18 13 14 68 211 68 242 0 7 -104 10 -309 10 -289 0 -309 -1 -305
-17z m111 -5 c11 -17 40 -181 35 -196 -7 -22 -51 -14 -57 11 -28 121 -34 171
-24 183 14 17 35 18 46 2z m155 -26 c5 -18 8 -65 6 -105 -3 -69 -4 -72 -28
-72 -17 0 -26 7 -31 25 -9 34 -11 175 -2 184 17 17 47 0 55 -32z m134 27 c8
-13 6 -173 -3 -195 -3 -9 -16 -14 -32 -12 l-26 3 4 95 c2 52 8 101 13 108 13
15 35 16 44 1z m144 1 c12 -7 12 -19 1 -86 -7 -43 -17 -88 -22 -101 -10 -26
-46 -32 -55 -9 -5 14 22 182 32 198 7 11 26 10 44 -2z"/>
<path d="M2974 3701 c-50 -11 -186 -51 -302 -90 -282 -95 -404 -125 -515 -125
l-89 -1 7 -45 c26 -179 100 -320 209 -397 l29 -20 -17 -63 c-10 -35 -22 -93
-27 -128 -7 -47 -15 -69 -29 -79 -19 -13 -20 -26 -20 -202 0 -103 4 -191 9
-196 5 -6 30 -51 55 -101 101 -201 293 -346 547 -412 50 -13 85 -29 102 -46
25 -25 31 -26 144 -26 144 0 163 9 163 74 0 23 -5 47 -12 54 -8 8 -55 12 -147
12 -109 0 -138 -3 -152 -16 -15 -14 -25 -14 -76 -4 -148 30 -298 114 -402 226
-71 75 -154 195 -143 206 4 4 28 2 54 -3 44 -10 49 -15 93 -85 26 -41 49 -74
50 -72 2 2 -7 46 -21 98 -21 85 -24 116 -24 296 0 173 -2 203 -16 215 -14 11
-15 26 -10 89 11 123 4 115 104 116 52 1 156 14 257 34 414 78 698 158 843
235 l67 36 44 -48 c56 -62 67 -88 91 -229 22 -126 26 -219 10 -229 -6 -4 -10
-88 -10 -218 0 -171 -4 -228 -19 -297 -11 -47 -23 -94 -27 -105 -13 -37 16 -1
65 81 l47 79 77 15 c42 8 81 20 87 26 7 7 10 76 8 200 -3 181 -4 189 -24 198
-17 8 -23 24 -33 90 -24 159 -98 338 -191 461 -25 33 -62 90 -82 125 -67 119
-183 214 -318 260 -93 32 -326 37 -456 11z"/>
<path d="M4599 3503 c-13 -16 -12 -17 4 -4 16 13 21 21 13 21 -2 0 -10 -8 -17
-17z"/>
<path d="M1505 3493 c11 -11 52 -41 90 -67 39 -26 57 -36 41 -23 -42 36 -155
113 -131 90z"/>
<path d="M4529 3453 c-13 -16 -12 -17 4 -4 9 7 17 15 17 17 0 8 -8 3 -21 -13z"/>
<path d="M4459 3403 c-13 -16 -12 -17 4 -4 16 13 21 21 13 21 -2 0 -10 -8 -17
-17z"/>
<path d="M1840 3256 c0 -2 14 -14 30 -26 17 -12 30 -19 30 -16 0 2 -13 14 -30
26 -16 12 -30 19 -30 16z"/>
<path d="M1940 3186 c0 -2 8 -10 18 -17 15 -13 16 -12 3 4 -13 16 -21 21 -21
13z"/>
<path d="M2665 2565 c-31 -31 -34 -86 -5 -115 45 -45 111 -33 138 24 41 83
-68 157 -133 91z m63 -32 c5 -17 -26 -29 -40 -15 -6 6 -7 15 -3 22 9 14 37 9
43 -7z"/>
<path d="M3555 2565 c-35 -34 -33 -78 4 -116 38 -38 74 -38 112 0 32 33 36 58
14 100 -25 49 -90 57 -130 16z m53 -32 c-2 -10 -10 -18 -18 -18 -8 0 -16 8
-18 18 -2 12 3 17 18 17 15 0 20 -5 18 -17z"/>
<path d="M479 2185 c-271 -66 -472 -321 -472 -600 -1 -103 15 -170 65 -274 51
-108 158 -218 264 -274 205 -106 438 -94 629 35 213 142 321 413 260 653 -56
221 -239 404 -460 460 -72 18 -210 18 -286 0z m329 -51 c309 -102 472 -438
362 -750 -30 -87 -67 -143 -144 -219 -121 -119 -261 -171 -436 -162 -241 13
-446 170 -520 398 -33 102 -34 253 -3 354 57 181 203 330 373 381 119 36 254
35 368 -2z"/>
<path d="M523 1906 c-158 -52 -262 -218 -233 -375 27 -146 133 -254 276 -281
152 -30 318 67 374 218 29 75 24 184 -11 257 -30 64 -106 140 -166 167 -60 26
-181 33 -240 14z m28 -208 c6 -11 8 -31 5 -44 -16 -64 -110 -46 -104 19 5 53
75 71 99 25z m243 -10 c12 -34 2 -56 -30 -68 -40 -16 -76 11 -72 53 6 59 82
70 102 15z m19 -174 c10 -11 -20 -59 -57 -92 -37 -32 -90 -52 -142 -52 -46 0
-131 47 -159 88 -43 63 -45 62 163 62 104 0 191 -3 195 -6z"/>
<path d="M5440 2185 c-222 -61 -403 -246 -454 -465 -69 -291 96 -601 376 -710
43 -17 112 -35 153 -41 252 -35 514 111 629 350 l41 86 3 161 c3 142 1 168
-17 219 -60 171 -203 314 -379 382 -86 33 -265 42 -352 18z m342 -52 c240 -81
405 -334 385 -592 -18 -236 -170 -435 -390 -511 -124 -43 -311 -36 -426 17
-138 63 -258 192 -312 335 -26 68 -37 249 -19 331 27 134 132 284 251 360 145
92 346 116 511 60z"/>
<path d="M5618 1898 c-36 -21 -68 -75 -68 -116 0 -44 54 -125 133 -197 45 -41
87 -75 93 -75 5 0 45 32 87 71 117 108 152 181 122 256 -11 27 -28 47 -54 61
-46 26 -68 27 -119 7 -34 -14 -42 -14 -75 0 -49 20 -75 19 -119 -7z m125 -38
c14 -11 28 -20 32 -20 4 0 18 9 32 20 36 28 85 26 122 -6 33 -28 40 -68 21
-119 -11 -29 -87 -113 -141 -156 l-36 -28 -63 57 c-119 107 -148 185 -91 243
36 35 86 39 124 9z"/>
<path d="M5187 1713 c-19 -18 2 -23 105 -23 l111 0 111 -110 c87 -86 108 -112
99 -121 -10 -10 -24 -1 -67 39 -30 29 -59 52 -63 52 -5 0 -19 -7 -31 -16 -37
-26 -27 -54 41 -121 l62 -62 130 -17 c126 -16 161 -27 149 -45 -3 -5 -73 -9
-156 -9 l-151 0 -122 120 -121 120 -52 0 c-40 0 -52 -4 -52 -15 0 -11 12 -15
48 -15 l47 0 117 -120 117 -120 168 0 c178 0 193 4 193 45 0 39 -30 51 -167
70 l-131 18 -57 57 c-38 39 -53 60 -45 65 7 4 30 -11 59 -39 64 -63 121 -61
121 4 0 20 -27 52 -113 138 l-114 112 -115 0 c-63 0 -118 -3 -121 -7z"/>
<path d="M1620 1894 c-60 -40 -94 -69 -45 -39 82 50 115 75 102 75 -1 0 -27
-16 -57 -36z"/>
<path d="M4585 1885 c11 -9 29 -21 40 -26 l20 -10 -20 16 c-11 9 -29 21 -40
26 l-20 10 20 -16z"/>
<path d="M1509 1819 l-24 -20 28 17 c15 9 27 18 27 20 0 8 -8 4 -31 -17z"/>
<path d="M2643 1668 l-88 -171 -85 -22 c-235 -60 -431 -161 -531 -273 -99
-111 -122 -217 -123 -552 0 -227 7 -334 36 -562 l11 -88 1287 0 1287 0 6 38
c43 270 55 750 24 922 -39 213 -132 317 -377 426 -80 35 -243 87 -341 108 -23
5 -32 23 -89 173 -35 93 -65 170 -67 172 -2 3 -20 -11 -41 -30 -100 -95 -203
-159 -292 -182 -30 -8 -67 -20 -82 -27 -24 -11 -37 -7 -150 49 -77 38 -153 85
-203 126 -44 35 -83 64 -87 65 -4 0 -47 -77 -95 -172z m445 -150 c18 -18 15
-36 -9 -49 -28 -15 -54 9 -44 40 7 23 34 28 53 9z m180 -14 c4 -29 -23 -51
-43 -34 -16 13 -20 42 -8 54 14 14 48 1 51 -20z"/>
<path d="M3043 1504 c-8 -22 18 -37 36 -20 7 8 10 19 7 25 -10 16 -36 13 -43
-5z"/>
<path d="M3222 1498 c2 -12 10 -23 18 -23 22 0 19 39 -3 43 -15 3 -18 -1 -15
-20z"/>
</g>
</svg>
