<svg width="702" height="351" viewBox="0 0 702 351" fill="none" xmlns="http://www.w3.org/2000/svg">
<path d="M1 351L1.03444 346.895L1.13781 342.79L1.31 338.689L1.551 334.591L1.86072 330.498L2.23899 326.411L2.68572 322.332L3.20075 318.261L3.78385 314.2L4.43485 310.151L5.15347 306.114L5.93946 302.09L6.79252 298.081L7.71237 294.088L8.69865 290.112L9.75098 286.155L10.869 282.217L12.0522 278.3L13.3003 274.405L14.6128 270.533L15.9891 266.685L17.4288 262.862L18.9313 259.066L20.4961 255.298L22.1226 251.558L23.8103 247.848L25.5584 244.169L27.3663 240.522L29.2335 236.908L31.1591 233.328L33.1425 229.783L35.1829 226.275L37.2797 222.804L39.4319 219.37L41.6389 215.976L43.8998 212.622L46.2138 209.309L48.58 206.038L50.9977 202.81L53.4658 199.626L55.9834 196.487L58.5498 193.393L61.1638 190.345L63.8247 187.345L66.5312 184.393L69.2826 181.489L72.0778 178.635L74.9157 175.832L77.7954 173.079L80.7157 170.379L83.6756 167.731L86.6741 165.136L89.71 162.594L92.7822 160.108L95.8896 157.676L99.0311 155.3L102.206 152.981L105.412 150.718L108.649 148.512L111.915 146.364L115.209 144.274L118.531 142.243L121.878 140.271L125.251 138.359L128.646 136.507L132.064 134.715L135.503 132.984L138.961 131.313L142.438 129.704L145.932 128.156L149.442 126.671L152.967 125.247L156.505 123.885L160.056 122.586L163.617 121.349L167.188 120.175L170.768 119.063L174.354 118.014L177.947 117.028L181.543 116.105L185.143 115.245L188.746 114.448L192.348 113.713L195.951 113.042L199.551 112.432L203.148 111.886L206.741 111.401L210.328 110.979L213.909 110.619L217.481 110.321L221.044 110.084L224.596 109.909L228.136 109.794L231.663 109.741L235.176 109.747L238.673 109.814L242.154 109.94L245.616 110.125L249.06 110.369L252.483 110.672L255.884 111.032L259.263 111.45L262.618 111.924L265.948 112.455L269.252 113.042L272.529 113.683L275.778 114.38L278.997 115.13L282.185 115.934L285.343 116.79L288.467 117.698L291.558 118.657L294.615 119.667L297.636 120.727L300.62 121.836L303.567 122.993L306.475 124.197L309.343 125.448L312.172 126.745L314.959 128.087L317.704 129.473L320.406 130.902L323.064 132.374L325.677 133.887L328.245 135.44L330.767 137.033L333.241 138.664L335.668 140.333L338.046 142.039L340.375 143.78L342.655 145.555L344.883 147.365L347.061 149.206L349.187 151.08L351.26 152.983L353.28 154.916L355.247 156.877L357.16 158.866L359.019 160.88L360.822 162.919L362.57 164.982L364.262 167.068L365.897 169.175L367.476 171.303L368.998 173.45L370.463 175.615L371.87 177.797L373.219 179.994L374.509 182.207L375.742 184.432L376.915 186.67L378.03 188.919L379.086 191.178L380.082 193.445L381.02 195.72L381.898 198.001L382.716 200.287L383.475 202.577L384.175 204.87L384.815 207.164L385.396 209.458L385.917 211.751L386.38 214.043L386.783 216.331L387.127 218.614L387.412 220.892L387.639 223.163L387.808 225.426L387.918 227.679L387.97 229.923L387.965 232.155L387.902 234.374L387.783 236.579L387.607 238.769L387.374 240.943L387.086 243.1L386.743 245.238L386.345 247.357L385.892 249.456L385.385 251.532L384.825 253.587L384.212 255.617L383.547 257.622L382.831 259.601L382.063 261.554L381.245 263.478L380.377 265.374L379.46 267.239L378.495 269.074L377.482 270.876L376.422 272.646L375.316 274.382L374.165 276.083L372.969 277.749L371.729 279.378L370.447 280.969L369.122 282.522L367.756 284.037L366.35 285.511L364.905 286.944L363.422 288.336L361.9 289.685L360.343 290.992L358.749 292.255L357.122 293.473L355.46 294.645L353.767 295.772L352.041 296.853L350.285 297.886L348.5 298.872L346.687 299.809L344.846 300.697L342.979 301.535L341.088 302.324L339.172 303.062L337.233 303.749L335.273 304.384L333.293 304.968L331.293 305.499L329.275 305.977L327.24 306.402L325.189 306.774L323.124 307.092L321.045 307.356L318.955 307.565L316.853 307.72L314.741 307.82L312.621 307.865L310.494 307.854L308.36 307.788L306.222 307.667L304.08 307.489L301.936 307.256L299.79 306.967L297.645 306.623L295.501 306.222L293.36 305.765L291.222 305.253L289.09 304.685L286.964 304.061L284.845 303.381L282.735 302.646L280.636 301.856L278.547 301.01L276.471 300.11L274.409 299.154L272.361 298.144L270.33 297.08L268.316 295.962L266.321 294.791L264.345 293.566L262.39 292.288L260.457 290.958L258.548 289.575L256.663 288.141L254.803 286.656L252.971 285.12L251.166 283.534L249.39 281.898L247.644 280.212L245.929 278.479L244.246 276.697L242.597 274.868L240.983 272.992L239.403 271.07L237.86 269.102L236.355 267.09L234.888 265.033L233.461 262.934L232.074 260.791L230.728 258.607L229.425 256.382L228.166 254.117L226.95 251.812L225.78 249.469L224.655 247.088L223.577 244.67L222.547 242.216L221.566 239.727L220.634 237.205L219.752 234.649L218.921 232.061L218.141 229.441L217.414 226.791L216.739 224.113L216.119 221.406L215.552 218.671L215.041 215.911L214.585 213.125L214.186 210.316L213.843 207.483L213.558 204.628L213.33 201.753L213.161 198.858L213.051 195.945L213 193.014L213.009 190.066L213.078 187.104L213.207 184.128L213.397 181.138L213.649 178.137L213.962 175.126L214.337 172.105L214.774 169.076L215.273 166.04L215.835 162.998L216.46 159.952L217.147 156.902L217.898 153.851L218.712 150.798L219.589 147.745L220.529 144.694L221.533 141.646L222.6 138.602L223.73 135.563L224.924 132.53L226.181 129.504L227.501 126.488L228.885 123.481L230.331 120.486L231.84 117.503L233.411 114.533L235.045 111.579L236.742 108.64L238.499 105.719L240.319 102.816L242.2 99.9328L244.142 97.0702L246.144 94.2295L248.206 91.412L250.329 88.6187L252.51 85.8508L254.751 83.1095L257.049 80.3958L259.406 77.7109L261.82 75.056L264.291 72.4321L266.818 69.8403L269.401 67.2816L272.039 64.7573L274.731 62.2683L277.477 59.8157L280.276 57.4005L283.127 55.0237L286.03 52.6864L288.984 50.3894L291.987 48.134L295.04 45.9209L298.142 43.7511L301.291 41.6256L304.487 39.5454L307.728 37.5112L311.015 35.524L314.346 33.5847L317.72 31.6941L321.137 29.853L324.594 28.0623L328.092 26.3228L331.629 24.6352L335.205 23.0003L338.818 21.4189L342.467 19.8917L346.151 18.4193L349.87 17.0025L353.621 15.6419L357.404 14.3383L361.219 13.0921L365.063 11.904L368.935 10.7746L372.835 9.70444L376.761 8.69406L380.712 7.74396L384.688 6.85466L388.686 6.02661L392.705 5.26023L396.745 4.55602L400.803 3.91435L404.88 3.33556L408.973 2.82005L413.082 2.36813L417.205 1.9801L421.34 1.65629L425.488 1.39693L429.645 1.20224L433.812 1.0725L437.986 1.00783L442.167 1.00839L446.354 1.07438L450.544 1.20586L454.737 1.40299L458.931 1.66576L463.125 1.99427L467.318 2.38852L471.509 2.84849L475.695 3.37419L479.877 3.96551L484.052 4.62242L488.22 5.34481L492.378 6.13252L496.527 6.98541L500.664 7.90336L504.788 8.88607L508.898 9.93341L512.992 11.0451L517.07 12.2208L521.13 13.4603L525.171 14.7632L529.192 16.1293L533.191 17.5581L537.167 19.0493L541.119 20.6024L545.046 22.217L548.947 23.8927L552.82 25.6289L556.664 27.4251L560.478 29.281L564.26 31.1957L568.011 33.1689L571.728 35.1999L575.41 37.2881L579.057 39.4329L582.667 41.6337L586.239 43.8896L589.772 46.2001L593.265 48.5644L596.717 50.9818L600.127 53.4516L603.494 55.9729L606.816 58.545L610.094 61.167L613.326 63.8381L616.51 66.5576L619.647 69.3244L622.735 72.1377L625.773 74.9967L628.76 77.9004L631.696 80.8478L634.58 83.838L637.411 86.8702L640.188 89.9431L642.91 93.056L645.577 96.2078L648.188 99.3973L650.741 102.624L653.238 105.886L655.676 109.183L658.055 112.513L660.375 115.876L662.634 119.271L664.833 122.695L666.971 126.149L669.047 129.631L671.061 133.14L673.012 136.675L674.9 140.234L676.724 143.817L678.484 147.423L680.18 151.049L681.811 154.695L683.376 158.36L684.877 162.042L686.311 165.741L687.68 169.455L688.982 173.183L690.218 176.923L691.387 180.675L692.489 184.437L693.524 188.208L694.493 191.987L695.394 195.772L696.228 199.563L696.994 203.358L697.693 207.155L698.325 210.954L698.89 214.754L699.388 218.552L699.818 222.349L700.181 226.142L700.478 229.931L700.708 233.714L700.872 237.489L700.969 241.257L701 245.015L700.965 248.763L700.865 252.498L700.7 256.221L700.47 259.929L700.176 263.622L699.817 267.299L699.395 270.957L698.91 274.597L698.361 278.217L697.751 281.816L697.079 285.392L696.345 288.945L695.551 292.473L694.697 295.976L693.783 299.452L692.81 302.9L691.779 306.319L690.69 309.708L689.545 313.067L688.343 316.393L687.086 319.687L685.774 322.946L684.408 326.171L682.988 329.36L681.517 332.512L679.994 335.626L678.42 338.701L676.796 341.737L675.123 344.732L673.403 347.686L671.635 350.598L669.82 353.467L667.961 356.292L666.057 359.072L664.11 361.807L662.121 364.495L660.09 367.137L658.019 369.731L655.908 372.277L653.76 374.774L651.574 377.222L649.352 379.619L647.096 381.965L644.805 384.26L642.482 386.502L640.127 388.692L637.742 390.829L635.327 392.913L632.885 394.942L630.415 396.917L627.919 398.836L625.399 400.701L622.856 402.509L620.29 404.262L617.703 405.957L615.097 407.597L612.472 409.179L609.829 410.703L607.171 412.17L604.498 413.579L601.811 414.93L599.111 416.223L596.401 417.457L593.681 418.633L590.952 419.75L588.216 420.809L585.473 421.809L582.726 422.75L579.975 423.632L577.222 424.455L574.468 425.22L571.714 425.926L568.961 426.573L566.211 427.162L563.466 427.693L560.725 428.165L557.99 428.58L555.264 428.936L552.546 429.236L549.838 429.477L547.141 429.662L544.457 429.79L541.787 429.862L539.132 429.878L536.493 429.838L533.871 429.743L531.267 429.593L528.683 429.389L526.12 429.131L523.579 428.819L521.061 428.454L518.567 428.037L516.098 427.569L513.656 427.048L511.241 426.478L508.855 425.857L506.498 425.187L504.172 424.467L501.877 423.7L499.616 422.886L497.387 422.025L495.194 421.117L493.036 420.165L490.915 419.168L488.831 418.128L486.786 417.044L484.78 415.919L482.814 414.753L480.889 413.546L479.006 412.3L477.166 411.015L475.37 409.692L473.617 408.333L471.91 406.939L470.249 405.509L468.634 404.045L467.067 402.549L465.548 401.02L464.077 399.461L462.655 397.872L461.284 396.254L459.963 394.609L458.693 392.936L457.475 391.238L456.308 389.516L455.195 387.769L454.135 386.001L453.128 384.211L452.175 382.401L451.277 380.572L450.434 378.725L449.646 376.861L448.914 374.981L448.238 373.087L447.617 371.18L447.054 369.26L446.547 367.33L446.097 365.389L445.704 363.44L445.368 361.484L445.09 359.521L444.869 357.553L444.706 355.581L444.601 353.606L444.554 351.63L444.564 349.653L444.633 347.677L444.759 345.703L444.943 343.732L445.184 341.766L445.483 339.805L445.84 337.851L446.253 335.905L446.724 333.968L447.252 332.042L447.836 330.126L448.477 328.224L449.173 326.335L449.926 324.461L450.734 322.603L451.597 320.762L452.515 318.94L453.487 317.137L454.513 315.355L455.593 313.594L456.726 311.857L457.911 310.143L459.148 308.454L460.436 306.791L461.776 305.155L463.166 303.548L464.605 301.969L466.093 300.421L467.63 298.904L469.215 297.42L470.847 295.968L472.525 294.551L474.248 293.169L476.016 291.823L477.829 290.514L479.685 289.244L481.583 288.012L483.523 286.819L485.503 285.668L487.524 284.558L489.583 283.49L491.681 282.465L493.815 281.484L495.986 280.548L498.192 279.658L500.433 278.813L502.706 278.016L505.013 277.266L507.35 276.565L509.718 275.912L512.114 275.309L514.539 274.757L516.991 274.255L519.469 273.805L521.972 273.407L524.499 273.062L527.048 272.769L529.619 272.531L532.21 272.346L534.82 272.216L537.448 272.141L540.094 272.121L542.755 272.157L545.43 272.25L548.119 272.398L550.819 272.604L553.531 272.866L556.252 273.186L558.982 273.564L561.719 274L564.462 274.493L567.209 275.045L569.96 275.655L572.713 276.324L575.468 277.051L578.222 277.837L580.974 278.682L583.724 279.585L586.469 280.548L589.209 281.569L591.943 282.648L594.669 283.787L597.386 284.984L600.092 286.24L602.787 287.554L605.47 288.926L608.138 290.356L610.79 291.844L613.427 293.389L616.045 294.992L618.644 296.652L621.224 298.368L623.782 300.141L626.317 301.97L628.828 303.854L631.314 305.794L633.774 307.788L636.207 309.837L638.611 311.94L640.985 314.096L643.329 316.306L645.64 318.567L647.919 320.881L650.163 323.246L652.372 325.661L654.544 328.126L656.679 330.641L658.775 333.205L660.832 335.816L662.847 338.475L664.822 341.181L666.753 343.932L668.641 346.729L670.484 349.57L672.282 352.454L674.033 355.381L675.736 358.35L677.391 361.36L678.997 364.411L680.553 367.5L682.057 370.628L683.51 373.793L684.91 376.995L686.256 380.233L687.548 383.505L688.786 386.81L689.967 390.148L691.092 393.518L692.16 396.919L693.17 400.349L694.121 403.807L695.014 407.293L695.846 410.805L696.618 414.342L697.33 417.904L697.98 421.488L698.568 425.094L699.093 428.722L699.556 432.368L699.955 436.034L700.29 439.716L700.561 443.415L700.768 447.129L700.909 450.856L700.986 454.596L700.996 458.348L700.941 462.109L700.82 465.88L700.632 469.659L700.378 473.444L700.057 477.234L699.67 481.029L699.215 484.826L698.693 488.625L698.104 492.425L697.447 496.223L696.724 500.02L695.933 503.813L695.074 507.602L694.149 511.385L693.157 515.162L692.097 518.93L690.97 522.688L689.777 526.436L688.517 530.172L687.191 533.895L685.798 537.603L684.34 541.296L682.816 544.972L681.226 548.631L679.572 552.27L677.853 555.889L676.069 559.486L674.222 563.06L672.311 566.611L670.337 570.136L668.301 573.636L666.202 577.108L664.042 580.551L661.821 583.965L659.54 587.348L657.198 590.699L654.798 594.018L652.338 597.302L649.821 600.551L647.247 603.765L644.616 606.941L641.929 610.078L639.186 613.177L636.39 616.235L633.54 619.252L630.637 622.227L627.682 625.159L624.676 628.046L621.62 630.889L618.514 633.685L615.36 636.435L612.158 639.137L608.91 641.79L605.616 644.394L602.277 646.948L598.894 649.451L595.469 651.902L592.002 654.3L588.494 656.645L584.947 658.936L581.361 661.171L577.738 663.352L574.078 665.476L570.383 667.544L566.653 669.554L562.891 671.506L559.097 673.399L555.272 675.234L551.417 677.008L547.534 678.723L543.624 680.376L539.688 681.968L535.727 683.499L531.742 684.968L527.735 686.374L523.707 687.717L519.659 688.997L515.592 690.213L511.508 691.366L507.408 692.454L503.292 693.478L499.164 694.437L495.022 695.332L490.87 696.161L486.708 696.925L482.538 697.624L478.36 698.257L474.176 698.824L469.988 699.326L465.796 699.762L461.603 700.133L457.408 700.437L453.215 700.676L449.023 700.849L444.834 700.957L440.649 700.999L436.471 700.976L432.299 700.888L428.135 700.735L423.981 700.516L419.838 700.234L415.707 699.887L411.589 699.475L407.486 699L403.399 698.462L399.328 697.86L395.276 697.196L391.244 696.469L387.232 695.68L383.242 694.83L379.276 693.918L375.333 692.946L371.417 691.914L367.526 690.822L363.664 689.672L359.831 688.462L356.028 687.195L352.256 685.871L348.516 684.49L344.81 683.053L341.138 681.56L337.502 680.013L333.903 678.412L330.341 676.758L326.818 675.052L323.335 673.294L319.892 671.485L316.491 669.626L313.132 667.717L309.817 665.76L306.547 663.756L303.321 661.705L300.142 659.608L297.011 657.467L293.927 655.281L290.891 653.052L287.906 650.782L284.971 648.47L282.086 646.118L279.254 643.727L276.474 641.298L273.748 638.833L271.075 636.331L268.457 633.794L265.895 631.223L263.388 628.619L260.938 625.984L258.544 623.318L256.208 620.623L253.931 617.899L251.712 615.148L249.551 612.37L247.451 609.568L245.41 606.742L243.43 603.893L241.51 601.023L239.652 598.133L237.854 595.223L236.119 592.295L234.445 589.351L232.834 586.391L231.285 583.416L229.799 580.429L228.375 577.429L227.015 574.419L225.718 571.399L224.483 568.371L223.313 565.335L222.205 562.294L221.161 559.248L220.18 556.199L219.263 553.147L218.409 550.094L217.618 547.042L216.89 543.991L216.226 540.942L215.624 537.897L215.085 534.857L214.608 531.824L214.193 528.798L213.841 525.78L213.55 522.772L213.321 519.775L213.153 516.791L213.046 513.819L212.999 510.862L213.012 507.921L213.084 504.996L213.216 502.089L213.406 499.201L213.655 496.333L213.961 493.486L214.324 490.662L214.744 487.861L215.22 485.084L215.752 482.333L216.338 479.609L216.978 476.912L217.671 474.243L218.418 471.605L219.216 468.997L220.066 466.42L220.966 463.876L221.917 461.365L222.916 458.889L223.963 456.448L225.058 454.044L226.199 451.677L227.386 449.347L228.618 447.057L229.893 444.806L231.212 442.595L232.573 440.426L233.974 438.299L235.416 436.215L236.897 434.175L238.416 432.179L239.972 430.228L241.565 428.322L243.192 426.463L244.853 424.651L246.548 422.887L248.274 421.17L250.031 419.503L251.817 417.885L253.633 416.317L255.475 414.799L257.344 413.332L259.238 411.917L261.156 410.553L263.097 409.242L265.06 407.983L267.043 406.778L269.045 405.626L271.065 404.527L273.103 403.483L275.156 402.493L277.223 401.557L279.304 400.677L281.397 399.851L283.5 399.081L285.613 398.366L287.735 397.706L289.863 397.102L291.998 396.555L294.137 396.062L296.279 395.626L298.424 395.246L300.569 394.921L302.714 394.653L304.858 394.44L306.999 394.283L309.135 394.182L311.267 394.136L313.392 394.145L315.509 394.21L317.617 394.33L319.715 394.505L321.801 394.734L323.875 395.017L325.935 395.355L327.981 395.746L330.01 396.19L332.021 396.688L334.014 397.238L335.987 397.84L337.94 398.495L339.87 399.2L341.777 399.957L343.66 400.763L345.517 401.62L347.348 402.526L349.152 403.481L350.926 404.483L352.671 405.534L354.385 406.631L356.067 407.775L357.716 408.964L359.332 410.199L360.912 411.477L362.457 412.799L363.964 414.164L365.434 415.571L366.865 417.02L368.257 418.508L369.608 420.037L370.917 421.604L372.184 423.209L373.408 424.852L374.588 426.53L375.723 428.244L376.812 429.992L377.855 431.774L378.851 433.588L379.798 435.434L380.698 437.311L381.548 439.217L382.347 441.152L383.097 443.114L383.795 445.103L384.441 447.117L385.035 449.156L385.575 451.219L386.062 453.303L386.495 455.409L386.874 457.536L387.197 459.681L387.465 461.844L387.677 464.024L387.833 466.22L387.932 468.43L387.973 470.654L387.958 472.89L387.884 475.137L387.753 477.394L387.564 479.66L387.316 481.934L387.009 484.214L386.643 486.499L386.219 488.789L385.735 491.081L385.192 493.375L384.59 495.669L383.928 497.963L383.207 500.255L382.426 502.543L381.586 504.828L380.686 507.107L379.728 509.379L378.709 511.643L377.632 513.898L376.496 516.143L375.301 518.377L374.048 520.598L372.736 522.805L371.366 524.997L369.938 527.173L368.453 529.331L366.91 531.472L365.31 533.592L363.654 535.692L361.942 537.769L360.174 539.824L358.35 541.854L356.472 543.859L354.54 545.838L352.553 547.789L350.514 549.711L348.421 551.604L346.277 553.466L344.08 555.296L341.833 557.093L339.536 558.856L337.189 560.585L334.793 562.277L332.348 563.933L329.857 565.55L327.318 567.129L324.734 568.667L322.104 570.165L319.43 571.621L316.712 573.035L313.952 574.405L311.15 575.731L308.307 577.011L305.424 578.245L302.501 579.433L299.541 580.572L296.543 581.663L293.51 582.705L290.44 583.697L287.337 584.638L284.201 585.527L281.032 586.364L277.832 587.149L274.602 587.879L271.343 588.556L268.056 589.178L264.742 589.744L261.403 590.255L258.039 590.709L254.652 591.106L251.243 591.445L247.812 591.726L244.362 591.949L240.892 592.113L237.406 592.218L233.903 592.262L230.385 592.247L226.853 592.171L223.308 592.035L219.752 591.837L216.185 591.578L212.61 591.257L209.027 590.875L205.438 590.43L201.843 589.923L198.245 589.354L194.643 588.722L191.041 588.027L187.438 587.27L183.837 586.45L180.237 585.567L176.642 584.621L173.052 583.612L169.468 582.541L165.891 581.407L162.324 580.21L158.766 578.95L155.22 577.628L151.686 576.244L148.167 574.797L144.662 573.289L141.174 571.719L137.704 570.088L134.252 568.395L130.821 566.642L127.411 564.828L124.024 562.954L120.661 561.02L117.322 559.026L114.011 556.974L110.726 554.863L107.47 552.694L104.245 550.468L101.05 548.184L97.8871 545.844L94.7578 543.448L91.663 540.996L88.6039 538.49L85.5814 535.929L82.5968 533.315L79.6512 530.647L76.7455 527.928L73.8808 525.157L71.0583 522.335L68.2789 519.463L65.5437 516.542L62.8536 513.572L60.2096 510.554L57.6128 507.49L55.064 504.379L52.5642 501.223L50.1143 498.023L47.7153 494.779L45.3679 491.493L43.073 488.165L40.8316 484.797L38.6444 481.388L36.5122 477.941L34.4358 474.456L32.416 470.934L30.4535 467.377L28.549 463.784L26.7033 460.158L24.917 456.499L23.1907 452.809L21.5252 449.088L19.921 445.338L18.3788 441.559L16.899 437.754L15.4822 433.922L14.129 430.065L12.8399 426.184L11.6153 422.281L10.4556 418.356L9.36143 414.411L8.33303 410.447L7.37083 406.465L6.4752 402.466L5.64643 398.451L4.88484 394.423L4.19073 390.381L3.56434 386.327L3.00594 382.263L2.51567 378.189L2.09378 374.106L1.74038 370.017L1.45557 365.922L1.23955 361.823L1.09231 357.72L1.014 353.616L1.00453 349.51L1.06399 345.405L1.19235 341.301L1.38951 337.201L1.65546 333.105L1.99008 329.014L2.39323 324.93L2.86476 320.853L3.40452 316.786L4.01227 312.729L4.68785 308.684L5.43095 304.652L6.24134 300.633L7.11869 296.63L8.06266 292.643L9.07297 288.674L10.1492 284.723L11.2909 280.793L12.4977 276.884L13.7692 272.997L15.1049 269.133L16.5043 265.294L17.9669 261.481L19.4921 257.695L21.0794 253.937L22.7281 250.208L24.4378 246.509L26.2077 242.842L28.0372 239.207L29.9256 235.605L31.8723 232.038L33.8765 228.506L35.9374 225.011L38.0544 221.553L40.2266 218.134L42.4533 214.754L44.7336 211.415L47.0666 208.117L49.4516 204.862L51.8877 201.65L54.3739 198.482L56.9093 195.359L59.4931 192.281L62.1242 189.251L64.8017 186.268L67.5247 183.333L70.2921 180.448L73.1029 177.612L75.9561 174.827L78.8506 172.093L81.7854 169.411L84.7595 166.783L87.7716 164.207L90.8208 161.686L93.906 159.219L97.0259 156.807L100.18 154.452L103.366 152.153L106.583 149.91L109.831 147.726L113.107 145.599L116.412 143.53L119.743 141.521L123.1 139.571L126.48 137.68L129.884 135.85L133.31 134.08L136.756 132.37L140.221 130.722L143.704 129.135L147.204 127.61L150.72 126.147L154.25 124.745L157.793 123.406L161.347 122.129L164.912 120.915L168.486 119.764L172.069 118.675L175.657 117.649L179.252 116.686L182.85 115.786L186.451 114.949L190.053 114.174L193.656 113.462L197.258 112.813L200.857 112.227L204.453 111.703L208.044 111.241L211.629 110.842L215.206 110.504L218.775 110.228L222.334 110.013L225.882 109.86L229.418 109.768L232.94 109.736L236.447 109.764L239.938 109.853L243.412 110L246.868 110.207L250.304 110.472L253.72 110.796L257.113 111.177L260.484 111.615L263.83 112.11L267.15 112.662L270.445 113.268L273.711 113.93L276.949 114.646L280.158 115.415L283.335 116.238L286.481 117.113L289.593 118.04L292.672 119.018L295.715 120.046L298.723 121.124L301.694 122.25L304.627 123.424L307.52 124.646L310.375 125.914L313.188 127.227L315.96 128.585L318.689 129.987L321.375 131.431L324.017 132.918L326.614 134.446L329.166 136.013L331.67 137.62L334.128 139.265L336.537 140.948L338.897 142.666L341.208 144.42L343.469 146.208L345.68 148.029L347.838 149.883L349.945 151.767L351.999 153.681L354 155.625L355.948 157.596L357.841 159.594L359.679 161.617L361.463 163.665L363.19 165.737L364.862 167.83L366.477 169.945L368.035 172.08L369.537 174.234L370.98 176.405L372.366 178.593L373.694 180.796L374.964 183.013L376.175 185.243L377.327 187.485L378.42 189.738L379.454 192L380.429 194.27L381.345 196.547L382.202 198.83L382.999 201.118L383.736 203.409L384.414 205.702L385.033 207.996L385.592 210.291L386.092 212.583L386.533 214.874L386.915 217.16L387.237 219.442L387.502 221.717L387.707 223.985L387.854 226.245L387.943 228.495L387.975 230.734L387.949 232.961L387.865 235.176L387.725 237.375L387.529 239.56L387.276 241.728L386.968 243.878L386.605 246.01L386.187 248.121L385.714 250.212L385.188 252.281L384.609 254.326L383.977 256.347L383.293 258.343L382.558 260.313L381.772 262.256L380.935 264.17L380.05 266.054L379.115 267.909L378.132 269.732L377.102 271.523L376.026 273.28L374.903 275.004L373.736 276.692L372.524 278.344L371.269 279.96L369.971 281.537L368.631 283.077L367.251 284.576L365.83 286.036L364.371 287.454L362.874 288.831L361.339 290.165L359.769 291.455L358.163 292.702L356.523 293.904L354.849 295.06L353.144 296.17L351.408 297.233L349.641 298.249L347.845 299.217L346.022 300.137L344.172 301.007L342.296 301.827L340.395 302.598L338.471 303.317L336.525 303.985L334.557 304.602L332.569 305.167L330.563 305.678L328.538 306.138L326.498 306.543L324.441 306.896L322.371 307.194L320.288 307.438L318.193 307.628L316.088 307.763L313.973 307.842L311.85 307.867L309.72 307.837L307.585 307.75L305.445 307.609L303.302 307.411L301.157 307.158L299.012 306.849L296.867 306.484L294.724 306.063L292.584 305.586L290.448 305.053L288.317 304.465L286.194 303.821L284.078 303.121L281.972 302.366L279.876 301.555L277.792 300.69L275.721 299.769L273.664 298.794L271.622 297.764L269.597 296.681L267.59 295.543L265.601 294.352L263.633 293.108L261.686 291.811L259.762 290.462L257.861 289.061L255.985 287.608L254.135 286.104L252.312 284.55L250.518 282.946L248.752 281.292L247.018 279.589L245.315 277.838L243.644 276.038L242.007 274.192L240.405 272.299L238.839 270.361L237.31 268.377L235.818 266.348L234.366 264.276L232.953 262.161L231.581 260.003L230.251 257.804L228.963 255.564L227.719 253.285L226.52 250.966L225.366 248.609L224.259 246.214L223.198 243.783L222.186 241.317L221.222 238.816L220.308 236.281L219.444 233.713L218.632 231.113L217.871 228.483L217.163 225.823L216.508 223.133L215.907 220.416L215.36 217.672L214.869 214.903L214.434 212.108L214.055 209.29L213.733 206.449L213.469 203.587L213.262 200.705L213.114 197.803L213.026 194.883L212.996 191.946L213.027 188.993L213.118 186.025L213.269 183.044L213.481 180.05L213.755 177.045L214.091 174.03L214.488 171.006L214.948 167.975L215.47 164.937L216.054 161.893L216.702 158.845L217.412 155.795L218.186 152.743L219.023 149.69L219.923 146.638L220.886 143.588L221.913 140.541L223.003 137.498L224.156 134.461L225.373 131.431L226.653 128.408L227.996 125.395L229.402 122.393L230.871 119.402L232.403 116.423L233.997 113.459L235.654 110.51L237.372 107.578L239.153 104.663L240.995 101.767L242.898 98.8914L244.861 96.0366L246.885 93.2042L248.97 90.3953L251.114 87.6111L253.317 84.8527L255.578 82.1213L257.898 79.418L260.276 76.7439L262.711 74.1L265.202 71.4877L267.749 68.9078L270.352 66.3615L273.01 63.8498L275.722 61.3739L278.487 58.9347L281.305 56.5333L284.175 54.1708L287.096 51.848L290.068 49.566L293.09 47.3258L296.16 45.1283L299.279 42.9746L302.445 40.8654L305.658 38.8017L308.916 36.7845L312.219 34.8146L315.566 32.8928L318.955 31.0201L322.387 29.1972L325.859 27.425L329.371 25.7042L332.923 24.0357L336.512 22.4201L340.138 20.8583L343.8 19.3509L347.497 17.8986L351.227 16.5022L354.991 15.1622L358.785 13.8793L362.61 12.6541L366.465 11.4873L370.348 10.3793L374.257 9.33079L378.192 8.34223L382.153 7.41416L386.136 6.54703L390.142 5.74129L394.169 4.99747L398.216 4.31587L402.281 3.697L406.364 3.14112L410.463 2.64864L414.577 2.2199L418.704 1.85516L422.844 1.5547L426.996 1.3188L431.157 1.14764L435.326 1.04149L439.503 1.00049L443.686 1.02478L447.874 1.11454L452.065 1.26983L456.259 1.49076L460.453 1.77741L464.647 2.12976L468.839 2.54785L473.029 3.03169L477.214 3.58121L481.393 4.19636L485.566 4.87705L489.73 5.62313L493.885 6.43454L498.029 7.31107L502.162 8.25254L506.281 9.25875L510.385 10.3294L514.474 11.4644L518.546 12.6633L522.599 13.9259L526.633 15.2518L530.646 16.6407L534.637 18.0922L538.604 19.6058L542.548 21.1813L546.465 22.8181L550.356 24.5158L554.218 26.2739L558.051 28.0918L561.854 29.9691L565.625 31.9051L569.364 33.8994L573.068 35.9512L576.738 38.0601L580.371 40.2252L583.968 42.4461L587.526 44.7219L591.044 47.052L594.523 49.4357L597.96 51.8722L601.354 54.3607L604.705 56.9006L608.011 59.4909L611.272 62.1308L614.487 64.8196L617.654 67.5563L620.773 70.3401L623.843 73.1701L626.863 76.0454L629.832 78.9651L632.749 81.9282L635.614 84.9337L638.425 87.9808L641.182 91.0684L643.885 94.1954L646.531 97.361L649.121 100.564L651.654 103.804L654.129 107.078L656.546 110.388L658.904 113.73L661.202 117.105L663.44 120.51L665.616 123.946L667.732 127.41L669.785 130.902L671.776 134.42L673.704 137.964L675.569 141.532L677.37 145.123L679.107 148.736L680.779 152.37L682.387 156.023L683.929 159.694L685.405 163.383L686.816 167.087L688.16 170.806L689.438 174.539L690.65 178.283L691.795 182.039L692.873 185.805L693.884 189.579L694.827 193.36L695.704 197.148L696.514 200.94L697.256 204.736L697.93 208.534L698.538 212.333L699.078 216.133L699.552 219.931L699.958 223.726L700.297 227.518L700.569 231.304L700.775 235.085L700.914 238.858L700.988 242.622L700.995 246.376L700.937 250.12L700.813 253.851L700.624 257.569L700.371 261.271L700.053 264.959L699.671 268.629L699.226 272.281L698.718 275.913L698.147 279.526L697.514 283.116L696.82 286.684L696.064 290.228L695.248 293.747L694.372 297.24L693.436 300.706L692.443 304.144L691.39 307.553L690.281 310.931L689.115 314.278L687.893 317.593L686.616 320.874L685.284 324.121L683.899 327.333L682.46 330.508L680.97 333.646L679.428 336.746L677.836 339.808L676.195 342.829L674.504 345.809L672.766 348.748L670.981 351.644L669.151 354.497L667.275 357.306L665.355 360.07L663.393 362.788L661.388 365.46L659.343 368.084L657.257 370.661L655.133 373.189L652.971 375.668L650.772 378.097L648.537 380.476L646.268 382.804L643.966 385.08L641.631 387.303L639.265 389.474L636.869 391.592L634.444 393.655L631.991 395.665L629.512 397.62L627.008 399.519L624.479 401.364L621.927 403.152L619.354 404.884L616.76 406.559L614.146 408.177L611.515 409.738L608.866 411.242L606.202 412.688L603.524 414.076L600.832 415.406L598.129 416.678L595.415 417.891L592.691 419.045L589.96 420.141L587.221 421.178L584.477 422.157L581.728 423.077L578.976 423.937L576.223 424.739L573.468 425.483L570.715 426.168L567.963 426.794L565.214 427.361L562.47 427.871L559.731 428.322L557 428.716L554.276 429.052L551.562 429.33L548.858 429.551L546.166 429.715L543.487 429.823L540.822 429.874L538.172 429.87L535.539 429.81L532.923 429.695L530.327 429.525L527.751 429.301L525.195 429.024L522.662 428.693L520.153 428.309L517.668 427.873L515.209 427.386L512.776 426.847L510.372 426.258L507.996 425.619L505.65 424.931L503.335 424.195L501.053 423.41L498.803 422.579L496.587 421.701L494.407 420.777L492.262 419.808L490.154 418.796L488.084 417.739L486.053 416.641L484.062 415.5L482.111 414.319L480.201 413.098L478.333 411.838L476.509 410.539L474.728 409.203L472.992 407.831L471.302 406.424L469.658 404.981L468.06 403.506L466.51 401.998L465.008 400.458L463.555 398.888L462.152 397.288L460.798 395.66L459.496 394.005L458.245 392.323L457.045 390.616L455.898 388.884L454.804 387.13L453.763 385.354L452.776 383.556L451.843 381.739L450.965 379.903L450.142 378.05L449.374 376.18L448.662 374.296L448.006 372.397L447.406 370.485L446.863 368.561L446.377 366.627L445.947 364.683L445.575 362.731L445.26 360.772L445.003 358.807L444.804 356.837L444.662 354.864L444.577 352.889L444.551 350.912L444.583 348.936L444.672 346.96L444.819 344.988L445.024 343.018L445.286 341.054L445.606 339.095L445.983 337.144L446.418 335.201L446.909 333.268L447.457 331.345L448.062 329.434L448.723 327.537L449.44 325.653L450.213 323.785L451.041 321.933L451.924 320.099L452.861 318.283L453.853 316.488L454.899 314.713L455.998 312.961L457.15 311.232L458.354 309.527L459.61 307.847L460.917 306.194L462.274 304.569L463.682 302.971L465.14 301.404L466.646 299.867L468.2 298.362L469.802 296.889L471.45 295.45L473.145 294.046L474.885 292.676L476.669 291.344L478.498 290.049L480.369 288.792L482.282 287.574L484.237 286.397L486.232 285.26L488.267 284.165L490.34 283.113L492.451 282.104L494.599 281.139L496.783 280.22L499.001 279.346L501.254 278.518L503.54 277.738L505.857 277.006L508.206 276.322L510.584 275.688L512.991 275.103L515.426 274.569L517.888 274.086L520.375 273.655L522.886 273.276L525.421 272.95L527.979 272.677L530.557 272.458L533.155 272.293L535.772 272.182L538.407 272.127L541.058 272.128L543.724 272.184L546.404 272.297L549.098 272.466L551.802 272.693L554.518 272.976L557.242 273.317L559.975 273.715L562.714 274.172L565.458 274.687L568.207 275.26L570.959 275.891L573.713 276.581L576.467 277.329L579.221 278.137L581.972 279.003L584.721 279.928L587.464 280.911L590.202 281.954L592.933 283.055L595.656 284.215L598.37 285.433L601.072 286.71L603.762 288.045L606.44 289.438L609.102 290.889L611.749 292.398L614.379 293.964L616.991 295.588L619.583 297.268L622.155 299.005L624.704 300.798L627.231 302.647L629.733 304.552L632.21 306.511L634.66 308.526L637.083 310.594L639.476 312.717L641.84 314.892L644.172 317.121L646.471 319.401L648.737 321.733L650.969 324.116L653.164 326.55L655.323 329.033L657.444 331.566L659.526 334.147L661.568 336.776L663.569 339.452L665.528 342.174L667.443 344.942L669.315 347.755L671.142 350.611L672.923 353.512L674.656 356.454L676.342 359.438L677.98 362.463L679.567 365.527L681.104 368.631L682.59 371.773L684.024 374.951L685.405 378.166L686.731 381.416L688.004 384.701L689.221 388.018L690.382 391.368L691.486 394.749L692.533 398.16L693.522 401.6L694.452 405.069L695.323 408.564L696.133 412.086L696.884 415.632L697.573 419.202L698.2 422.794L698.766 426.409L699.268 430.043L699.708 433.697L700.084 437.368L700.396 441.057L700.644 444.761L700.827 448.48L700.945 452.212L700.997 455.957L700.984 459.712L700.905 463.477L700.759 467.251L700.548 471.032L700.269 474.819L699.924 478.611L699.512 482.407L699.033 486.205L698.487 490.004L697.873 493.803L697.192 497.602L696.444 501.397L695.629 505.189L694.746 508.976L693.797 512.757L692.78 516.53L691.696 520.295L690.545 524.05L689.327 527.793L688.043 531.525L686.693 535.242L685.277 538.945L683.794 542.632L682.246 546.302L680.633 549.954L678.955 553.586L677.213 557.197L675.406 560.786L673.536 564.352L671.602 567.893L669.605 571.409L667.546 574.899L665.426 578.361L663.243 581.794L661 585.196L658.697 588.568L656.334 591.908L653.912 595.214L651.432 598.486L648.893 601.722L646.298 604.922L643.647 608.084L640.94 611.207L638.178 614.291L635.362 617.335L632.492 620.337L629.57 623.296L626.597 626.212L623.573 629.083L620.498 631.909L617.375 634.689L614.203 637.421L610.984 640.106L607.719 642.741L604.409 645.327L601.054 647.862L597.656 650.346L594.215 652.778L590.734 655.157L587.211 657.482L583.65 659.753L580.05 661.969L576.414 664.129L572.741 666.233L569.033 668.28L565.292 670.269L561.518 672.2L557.712 674.072L553.876 675.885L550.011 677.637L546.118 679.33L542.198 680.961L538.253 682.531L534.283 684.039L530.29 685.485L526.275 686.869L522.24 688.189L518.185 689.446L514.112 690.639L510.022 691.768L505.916 692.833L501.795 693.834L497.662 694.769L493.517 695.64L489.361 696.446L485.195 697.186L481.022 697.861L476.842 698.47L472.657 699.014L468.467 699.492L464.275 699.904L460.081 700.251L455.886 700.532L451.693 700.747L447.502 700.896L443.314 700.98L439.132 700.999L434.956 700.952L430.787 700.84L426.626 700.663L422.476 700.421L418.337 700.115L414.211 699.745L410.098 699.31L406.001 698.812L401.919 698.251L397.855 697.626L393.81 696.939L389.785 696.19L385.781 695.379L381.8 694.506L377.842 693.572L373.909 692.578L370.002 691.525L366.121 690.411L362.269 689.239L358.447 688.009L354.655 686.721L350.895 685.376L347.167 683.975L343.473 682.517L339.815 681.005L336.192 679.439L332.606 677.818L329.058 676.145L325.549 674.42L322.08 672.643L318.652 670.816L315.267 668.939L311.924 667.012L308.625 665.038L305.371 663.017L302.162 660.949L299 658.836L295.886 656.678L292.819 654.477L289.802 652.233L286.835 649.947L283.918 647.621L281.052 645.255L278.239 642.85L275.479 640.408L272.772 637.929L270.119 635.414L267.521 632.864L264.978 630.282L262.492 627.667L260.062 625.02L257.69 622.343L255.375 619.637L253.118 616.903L250.921 614.143L248.782 611.356L246.703 608.545L244.684 605.711L242.726 602.854L240.829 599.976L238.992 597.079L237.217 594.162L235.504 591.228L233.853 588.278L232.264 585.313L230.738 582.333L229.275 579.341L227.874 576.338L226.537 573.324L225.262 570.301L224.051 567.27L222.903 564.232L221.819 561.189L220.798 558.142L219.84 555.091L218.946 552.039L218.115 548.986L217.347 545.934L216.642 542.884L216 539.836L215.421 536.793L214.904 533.756L214.45 530.725L214.058 527.702L213.728 524.687L213.46 521.683L213.253 518.691L213.107 515.711L213.022 512.744L212.996 509.793L213.031 506.857L213.125 503.939L213.278 501.039L213.49 498.158L213.759 495.297L214.086 492.459L214.47 489.643L214.911 486.85L215.407 484.083L215.958 481.341L216.564 478.627L217.223 475.94L217.936 473.282L218.702 470.655L219.519 468.058L220.387 465.493L221.306 462.961L222.274 460.463L223.29 457.999L224.355 455.571L225.467 453.18L226.625 450.827L227.828 448.511L229.076 446.235L230.367 443.999L231.701 441.803L233.077 439.65L234.493 437.538L235.949 435.47L237.444 433.445L238.977 431.465L240.546 429.531L242.151 427.642L243.791 425.8L245.465 424.005L247.171 422.258L248.908 420.56L250.676 418.91L252.473 417.31L254.298 415.76L256.151 414.261L258.029 412.813L259.932 411.416L261.858 410.071L263.807 408.779L265.777 407.54L267.767 406.354L269.776 405.221L271.803 404.142L273.846 403.117L275.904 402.147L277.977 401.231L280.062 400.371L282.159 399.565L284.266 398.815L286.382 398.12L288.506 397.481L290.637 396.897L292.773 396.369L294.914 395.898L297.057 395.482L299.202 395.122L301.348 394.817L303.493 394.569L305.635 394.377L307.775 394.24L309.909 394.159L312.039 394.133L314.161 394.162L316.275 394.247L318.38 394.387L320.474 394.581L322.556 394.83L324.625 395.133L326.68 395.49L328.719 395.901L330.742 396.365L332.747 396.882L334.732 397.451L336.698 398.072L338.643 398.745L340.565 399.469L342.463 400.244L344.337 401.068L346.185 401.943L348.006 402.867L349.799 403.839L351.563 404.859L353.297 405.927L354.999 407.041L356.67 408.201L358.307 409.407L359.909 410.658L361.477 411.952L363.008 413.29L364.502 414.67L365.958 416.092L367.375 417.555L368.752 419.059L370.088 420.601L371.382 422.182L372.633 423.801L373.841 425.457L375.005 427.148L376.123 428.875L377.196 430.635L378.222 432.429L379.2 434.255L380.13 436.112L381.012 437.999L381.844 439.916L382.625 441.861L383.356 443.833L384.035 445.831L384.663 447.855L385.237 449.902L385.758 451.973L386.226 454.065L386.639 456.179L386.998 458.312L387.301 460.464L387.549 462.633L387.74 464.819L387.875 467.021L387.953 469.236L387.974 471.464L387.938 473.705L387.844 475.956L387.691 478.216L387.48 480.485L387.211 482.761L386.883 485.043L386.496 487.33L386.05 489.62L385.545 491.913L384.98 494.207L384.356 496.502L383.673 498.795L382.93 501.086L382.128 503.373L381.266 505.656L380.345 507.932L379.365 510.202L378.325 512.463L377.227 514.714L376.069 516.955L374.853 519.185L373.578 521.401L372.245 523.602L370.854 525.789L369.406 527.958L367.899 530.11L366.336 532.243L364.716 534.356L363.039 536.448L361.307 538.518L359.518 540.564L357.675 542.585L355.777 544.58L353.825 546.549L351.819 548.49L349.76 550.402L347.649 552.283L345.485 554.134L343.271 555.952L341.005 557.737L338.69 559.488L336.325 561.203L333.911 562.882L331.45 564.524L328.941 566.127L326.386 567.692L323.784 569.216L321.139 570.699L318.449 572.139L315.715 573.537L312.94 574.891L310.123 576.201L307.265 577.465L304.368 578.682L301.431 579.852L298.457 580.974L295.446 582.047L292.4 583.071L289.318 584.044L286.203 584.966L283.054 585.837L279.874 586.655L276.663 587.42L273.422 588.131L270.153 588.788L266.856 589.39L263.533 589.936L260.185 590.426L256.813 590.859L253.417 591.235L250 591.554L246.562 591.814L243.105 592.015L239.629 592.158L236.136 592.241L232.628 592.264L229.104 592.226L225.567 592.129L222.018 591.97L218.458 591.75L214.889 591.469L211.311 591.126L207.725 590.72L204.134 590.253L200.537 589.724L196.938 589.132L193.336 588.477L189.733 587.76L186.131 586.98L182.53 586.137L178.932 585.231L175.338 584.262L171.75 583.231L168.169 582.136L164.595 580.979L161.031 579.76L157.477 578.478L153.936 577.133L150.407 575.726L146.893 574.257L143.394 572.726L139.912 571.134L136.449 569.48L133.004 567.766L129.581 565.99L126.179 564.155L122.8 562.259L119.446 560.303L116.117 558.288L112.815 556.215L109.541 554.083L106.296 551.893L103.081 549.646L99.8981 547.341L96.7475 544.981L93.6305 542.564L90.5486 540.093L87.5026 537.566L84.4938 534.986L81.5232 532.353L78.5919 529.666L75.701 526.928L72.8515 524.138L70.0445 521.298L67.281 518.408L64.5621 515.469L61.8886 512.482L59.2617 509.447L56.6822 506.366L54.151 503.239L51.6692 500.067L49.2377 496.851L46.8573 493.592L44.5289 490.29L42.2533 486.947L40.0315 483.564L37.8641 480.141L35.7521 476.68L33.6961 473.182L31.6971 469.647L29.7555 466.077L27.8723 462.472L26.0481 458.834L24.2835 455.164L22.5792 451.462L20.9359 447.73L19.3541 443.97L17.8344 440.181L16.3775 436.366L14.9837 432.525L13.6537 428.659L12.3879 424.77L11.1869 420.859L10.0509 416.927L8.98055 412.975L7.97615 409.004L7.03806 405.015L6.16665 401.011L5.36224 396.991L4.62513 392.957L3.95556 388.911L3.35383 384.853L2.82012 380.785L2.35465 376.708L1.95756 372.623L1.62907 368.532L1.36921 364.435L1.17817 360.334L1.05595 356.231L1.00257 352.125L1.01816 348.02L1.10261 343.915L1.25594 339.813L1.47809 335.714L1.76898 331.619L2.12848 327.531L2.55646 323.449L3.05279 319.376L3.61724 315.313L4.24964 311.26L4.94974 307.219L5.71731 303.191L6.55203 299.178L7.4536 295.181L8.42171 291.2L9.45596 287.238L10.556 283.294L11.7214 279.372L12.9518 275.47L14.2466 271.592L15.6055 267.737L17.0278 263.907L18.5132 260.104L20.061 256.328L21.6707 252.58L23.3416 248.862L25.0732 245.174L26.8648 241.519L28.7158 237.895L30.6254 234.306L32.5931 230.752L34.618 227.233L36.6993 223.751L38.8364 220.308L41.0285 216.903L43.2747 213.538L45.5743 210.213L47.9262 206.931L50.3299 203.691L52.7842 200.495L55.2884 197.343L57.8415 194.236L60.4426 191.176L63.0907 188.163L65.7848 185.197L68.524 182.28L71.3073 179.413L74.1336 176.595L77.0019 173.829L79.9112 171.114L82.8603 168.451L85.8484 165.842L88.8741 163.286L91.9365 160.784L95.0344 158.337L98.1666 155.946L101.332 153.611L104.53 151.332L107.758 149.111L111.017 146.947L114.304 144.841L117.618 142.794L120.958 140.806L124.324 138.877L127.713 137.009L131.125 135.2L134.558 133.452L138.011 131.765L141.483 130.139L144.973 128.575L148.478 127.072L151.999 125.631L155.534 124.252L159.081 122.936L162.64 121.682L166.209 120.49L169.786 119.361L173.37 118.296L176.961 117.292L180.557 116.352L184.156 115.475L187.758 114.66L191.361 113.908L194.963 113.219L198.564 112.593L202.162 112.029L205.757 111.528L209.346 111.089L212.928 110.712L216.503 110.397L220.068 110.143L223.623 109.951L227.167 109.82L230.698 109.749L234.214 109.739L237.716 109.789L241.201 109.899L244.669 110.068L248.118 110.296L251.546 110.583L254.954 110.927L258.339 111.33L261.701 111.789L265.038 112.304L268.349 112.875L271.634 113.502L274.89 114.183L278.117 114.919L281.315 115.708L284.48 116.55L287.614 117.444L290.714 118.389L293.78 119.385L296.811 120.432L299.805 121.527L302.763 122.671L305.681 123.862L308.561 125.101L311.4 126.385L314.199 127.715L316.955 129.089L319.669 130.506L322.339 131.966L324.965 133.468L327.546 135.01L330.08 136.592L332.568 138.213L335.008 139.872L337.399 141.567L339.742 143.299L342.035 145.065L344.278 146.865L346.469 148.698L348.609 150.563L350.697 152.458L352.732 154.383L354.714 156.337L356.641 158.318L358.515 160.325L360.333 162.358L362.096 164.414L363.803 166.494L365.455 168.596L367.049 170.718L368.587 172.86L370.067 175.02L371.49 177.197L372.855 179.391L374.162 181.599L375.41 183.821L376.6 186.056L377.73 188.302L378.802 190.558L379.815 192.823L380.769 195.096L381.663 197.375L382.498 199.66L383.273 201.949L383.989 204.241L384.646 206.535L385.243 208.829L385.78 211.123L386.259 213.415L386.678 215.704L387.039 217.989L387.34 220.268L387.583 222.541L387.767 224.806L387.893 227.063L387.962 229.309L387.972 231.544L387.925 233.767L387.821 235.976L387.661 238.17L387.444 240.349L387.171 242.51L386.843 244.654L386.459 246.778L386.021 248.883L385.529 250.965L384.984 253.026L384.386 255.063L383.735 257.075L383.032 259.061L382.278 261.021L381.474 262.954L380.62 264.857L379.716 266.731L378.764 268.574L377.764 270.386L376.717 272.164L375.624 273.91L374.485 275.62L373.301 277.296L372.073 278.935L370.802 280.537L369.489 282.101L368.135 283.625L366.74 285.111L365.305 286.555L363.832 287.959L362.321 289.32L360.773 290.638L359.19 291.913L357.571 293.143L355.919 294.329L354.234 295.468L352.517 296.561L350.77 297.608L348.993 298.606L347.187 299.557L345.353 300.458L343.494 301.31L341.609 302.113L339.699 302.865L337.767 303.566L335.813 304.215L333.838 304.813L331.843 305.358L329.83 305.851L327.8 306.291L325.753 306.677L323.692 307.01L321.617 307.289L319.529 307.513L317.43 307.683L315.321 307.798L313.203 307.858L311.078 307.862L308.946 307.812L306.809 307.705L304.668 307.543L302.524 307.326L300.379 307.052L298.233 306.723L296.089 306.337L293.947 305.896L291.808 305.399L289.674 304.846L287.546 304.237L285.425 303.573L283.313 302.853L281.21 302.078L279.118 301.247L277.039 300.362L274.973 299.422L272.921 298.427L270.885 297.377L268.866 296.274L266.866 295.117L264.884 293.907L262.924 292.644L260.985 291.328L259.069 289.959L257.177 288.54L255.31 287.068L253.47 285.546L251.658 283.973L249.874 282.351L248.119 280.679L246.396 278.959L244.704 277.19L243.046 275.374L241.422 273.511L239.833 271.601L238.28 269.646L236.764 267.646L235.286 265.601L233.848 263.513L232.45 261.383L231.093 259.21L229.778 256.996L228.507 254.742L227.279 252.448L226.096 250.115L224.959 247.744L223.868 245.336L222.825 242.892L221.83 240.413L220.884 237.9L219.989 235.353L219.143 232.773L218.349 230.162L217.608 227.521L216.919 224.85L216.283 222.15L215.702 219.423L215.176 216.67L214.705 213.891L214.29 211.088L213.932 208.262L213.63 205.413L213.387 202.543L213.202 199.654L213.075 196.745L213.008 193.819L213 190.876L213.053 187.918L213.165 184.945L213.339 181.959L213.574 178.961L213.87 175.952L214.228 172.934L214.648 169.907L215.13 166.873L215.675 163.833L216.282 160.787L216.952 157.739L217.686 154.687L218.482 151.635L219.342 148.582L220.265 145.531L221.251 142.481L222.301 139.436L223.414 136.395L224.59 133.36L225.83 130.333L227.133 127.314L228.499 124.304L229.928 121.306L231.42 118.319L232.974 115.346L234.591 112.387L236.27 109.444L238.011 106.518L239.814 103.61L241.678 100.721L243.603 97.8528L245.589 95.006L247.635 92.182L249.741 89.3819L251.906 86.607L254.131 83.8582L256.414 81.1369L258.754 78.444L261.153 75.7807L263.608 73.1482L266.12 70.5475L268.688 67.9797L271.311 65.4458L273.988 62.947L276.719 60.4843L279.504 58.0587L282.34 55.6713L285.229 53.3231L288.169 51.015L291.159 48.748L294.199 46.5233L297.287 44.3415L300.423 42.2038L303.606 40.1111L306.835 38.0642L310.11 36.064L313.429 34.1115L316.791 32.2074L320.196 30.3527L323.642 28.5481L327.129 26.7945L330.656 25.0926L334.221 23.4432L337.824 21.847L341.463 20.3049L345.138 18.8174L348.847 17.3853L352.59 16.0093L356.364 14.6899L360.17 13.4279L364.006 12.2239L367.871 11.0783L371.763 9.99185L375.682 8.96504L379.627 7.99837L383.596 7.09236L387.587 6.24747L391.601 5.46415L395.635 4.74288L399.689 4.08401L403.761 3.48793L407.85 2.95506L411.954 2.48566L416.073 2.08009L420.206 1.73867L424.35 1.4616L428.505 1.24916L432.669 1.10159L436.841 1.01907L441.021 1.00174L445.206 1.04977L449.395 1.1633L453.587 1.34243L457.781 1.58721L461.975 1.89769L466.169 2.27391L470.36 2.71589L474.548 3.22356L478.731 3.79688L482.908 4.43584L487.078 5.14027L491.239 5.91009L495.391 6.74516L499.531 7.64525L503.658 8.61025L507.772 9.63988L511.871 10.7339L515.954 11.8922L520.019 13.1142L524.066 14.3998L528.092 15.7486L532.097 17.1602L536.08 18.6344L540.039 20.1705L543.972 21.7683L547.88 23.4273L551.761 25.147L555.613 26.9268L559.435 28.7663L563.227 30.665L566.986 32.6222L570.712 34.6375L574.404 36.7101L578.061 38.8394L581.681 41.0249L585.264 43.2658L588.807 45.5614L592.312 47.911L595.775 50.3139L599.196 52.7694L602.575 55.2767L605.91 57.8349L609.2 60.4433L612.444 63.1011L615.642 65.8074L618.792 68.5613L621.893 71.3619L624.945 74.2085L627.947 77.1L630.897 80.0355L633.795 83.0142L636.64 86.0349L639.432 89.0968L642.169 92.1988L644.852 95.34L647.478 98.5193L650.047 101.736L652.559 104.988L655.013 108.276L657.409 111.597L659.745 114.951L662.021 118.337L664.237 121.754L666.391 125.2L668.484 128.674L670.515 132.176L672.483 135.704L674.389 139.256L676.23 142.833L678.008 146.432L679.721 150.053L681.37 153.694L682.954 157.353L684.472 161.031L685.925 164.726L687.311 168.435L688.632 172.159L689.886 175.897L691.073 179.645L692.194 183.405L693.247 187.174L694.234 190.95L695.153 194.734L696.006 198.523L696.791 202.317L697.508 206.114L698.159 209.913L698.742 213.712L699.258 217.511L699.707 221.309L700.088 225.103L700.403 228.893L700.652 232.677L700.833 236.455L700.949 240.225L700.998 243.986L700.981 247.736L700.899 251.475L700.752 255.202L700.54 258.914L700.263 262.612L699.922 266.293L699.517 269.956L699.049 273.601L698.518 277.227L697.924 280.831L697.269 284.414L696.552 287.973L695.775 291.508L694.937 295.018L694.039 298.501L693.082 301.957L692.067 305.385L690.994 308.782L689.864 312.149L688.678 315.485L687.436 318.787L686.139 322.056L684.787 325.291L683.383 328.489L681.925 331.651L680.416 334.776L678.856 337.862L677.246 340.909L675.587 343.915L673.879 346.881L672.124 349.804L670.322 352.685L668.475 355.522L666.583 358.314L664.648 361.062L662.67 363.763L660.65 366.418L658.59 369.025L656.491 371.584L654.353 374.095L652.177 376.556L649.965 378.967L647.718 381.327L645.436 383.636L643.122 385.893L640.776 388.097L638.399 390.249L635.992 392.347L633.557 394.391L631.094 396.381L628.606 398.316L626.092 400.195L623.555 402.019L620.995 403.787L618.414 405.498L615.813 407.153L613.193 408.751L610.555 410.291L607.901 411.774L605.232 413.199L602.549 414.566L599.853 415.874L597.145 417.125L594.427 418.317L591.701 419.45L588.966 420.525L586.226 421.54L583.48 422.497L580.73 423.396L577.977 424.235L575.223 425.016L572.469 425.738L569.716 426.402L566.965 427.007L564.218 427.553L561.475 428.042L558.739 428.472L556.01 428.844L553.29 429.159L550.579 429.417L547.879 429.617L545.192 429.761L542.518 429.848L539.858 429.879L537.214 429.855L534.588 429.775L531.979 429.64L529.39 429.45L526.821 429.207L524.273 428.91L521.749 428.56L519.248 428.157L516.772 427.702L514.323 427.196L511.9 426.639L509.506 426.032L507.141 425.375L504.807 424.669L502.503 423.915L500.232 423.114L497.995 422.265L495.792 421.371L493.624 420.431L491.493 419.446L489.399 418.417L487.343 417.346L485.326 416.232L483.349 415.076L481.413 413.881L479.518 412.645L477.666 411.371L475.858 410.059L474.093 408.71L472.374 407.324L470.7 405.904L469.072 404.45L467.492 402.962L465.959 401.443L464.475 399.892L463.04 398.311L461.655 396.701L460.32 395.062L459.036 393.397L457.803 391.706L456.623 389.99L455.495 388.25L454.42 386.488L453.399 384.704L452.431 382.899L451.518 381.075L450.66 379.233L449.857 377.373L449.109 375.498L448.417 373.608L447.782 371.704L447.203 369.788L446.68 367.86L446.214 365.922L445.806 363.975L445.454 362.021L445.16 360.059L444.924 358.093L444.745 356.122L444.624 354.148L444.561 352.172L444.556 350.195L444.608 348.219L444.719 346.244L444.887 344.272L445.112 342.305L445.396 340.342L445.736 338.386L446.134 336.438L446.589 334.498L447.101 332.569L447.67 330.65L448.295 328.744L448.977 326.851L449.714 324.973L450.507 323.111L451.355 321.265L452.258 319.438L453.215 317.629L454.227 315.841L455.292 314.075L456.41 312.331L457.581 310.61L458.804 308.914L460.078 307.244L461.404 305.601L462.78 303.986L464.205 302.399L465.681 300.843L467.204 299.317L468.776 297.823L470.395 296.363L472.06 294.936L473.771 293.544L475.527 292.189L477.328 290.869L479.172 289.588L481.058 288.345L482.987 287.142L484.956 285.979L486.966 284.858L489.015 283.778L491.102 282.742L493.226 281.749L495.387 280.8L497.584 279.897L499.815 279.04L502.08 278.23L504.377 277.467L506.706 276.752L509.066 276.086L511.454 275.47L513.872 274.903L516.316 274.388L518.787 273.923L521.284 273.511L523.804 273.151L526.347 272.844L528.912 272.591L531.498 272.391L534.103 272.246L536.726 272.156L539.367 272.121L542.024 272.142L544.695 272.219L547.38 272.352L550.078 272.542L552.787 272.789L555.505 273.093L558.233 273.455L560.968 273.874L563.709 274.352L566.456 274.888L569.206 275.482L571.959 276.135L574.713 276.846L577.467 277.616L580.22 278.444L582.97 279.332L585.717 280.278L588.459 281.283L591.195 282.347L593.923 283.469L596.642 284.65L599.352 285.89L602.05 287.188L604.736 288.544L607.408 289.958L610.065 291.43L612.706 292.96L615.329 294.547L617.934 296.191L620.519 297.892L623.083 299.649L625.624 301.463L628.142 303.332L630.635 305.257L633.103 307.236L635.543 309.27L637.955 311.358L640.338 313.5L642.69 315.695L645.01 317.942L647.298 320.242L649.551 322.592L651.77 324.994L653.952 327.446L656.097 329.947L658.204 332.497L660.272 335.096L662.299 337.742L664.285 340.434L666.228 343.173L668.128 345.958L669.983 348.786L671.794 351.659L673.557 354.575L675.274 357.532L676.942 360.531L678.562 363.571L680.131 366.649L681.65 369.767L683.117 372.922L684.531 376.114L685.892 379.342L687.2 382.604L688.452 385.901L689.649 389.23L690.789 392.591L691.873 395.984L692.899 399.405L693.866 402.856L694.775 406.334L695.624 409.839L696.413 413.37L697.141 416.925L697.808 420.503L698.413 424.104L698.955 427.725L699.435 431.367L699.852 435.027L700.204 438.705L700.493 442.4L700.717 446.109L700.877 449.833L700.971 453.57L701 457.318L700.963 461.077L700.86 464.846L700.69 468.622L700.454 472.406L700.152 476.195L699.782 479.988L699.346 483.785L698.843 487.584L698.272 491.383L697.634 495.182L696.929 498.979L696.156 502.774L695.316 506.564L694.409 510.349L693.435 514.127L692.394 517.898L691.286 521.659L690.111 525.41L688.869 529.149L687.561 532.876L686.187 536.588L684.746 540.286L683.24 543.966L681.668 547.63L680.032 551.274L678.33 554.899L676.565 558.502L674.735 562.083L672.841 565.64L670.885 569.172L668.865 572.679L666.784 576.159L664.641 579.61L662.436 583.032L660.171 586.424L657.846 589.784L655.462 593.112L653.018 596.405L650.517 599.664L647.958 602.887L645.342 606.074L642.671 609.222L639.944 612.331L637.162 615.401L634.326 618.429L631.438 621.416L628.497 624.359L625.505 627.259L622.462 630.114L619.37 632.923L616.229 635.686L613.04 638.401L609.805 641.068L606.523 643.686L603.196 646.253L599.826 648.77L596.412 651.235L592.956 653.648L589.46 656.007L585.923 658.313L582.348 660.564L578.735 662.76L575.085 664.9L571.399 666.983L567.679 669.009L563.926 670.977L560.14 672.886L556.323 674.737L552.477 676.528L548.601 678.259L544.699 679.929L540.769 681.538L536.815 683.086L532.837 684.571L528.836 685.995L524.813 687.355L520.77 688.652L516.709 689.886L512.629 691.056L508.533 692.162L504.422 693.204L500.297 694.181L496.159 695.093L492.009 695.94L487.85 696.722L483.682 697.439L479.506 698.09L475.324 698.675L471.137 699.195L466.946 699.649L462.753 700.038L458.558 700.36L454.364 700.617L450.172 700.809L445.982 700.934L441.796 700.994L437.615 700.989L433.442 700.919L429.276 700.783L425.119 700.583L420.973 700.318L416.838 699.988L412.717 699.594L408.609 699.137L404.517 698.616L400.442 698.031L396.385 697.384L392.347 696.674L388.33 695.902L384.334 695.069L380.361 694.174L376.411 693.219L372.488 692.203L368.59 691.128L364.72 689.993L360.879 688.8L357.067 687.548L353.287 686.24L349.538 684.874L345.823 683.452L342.141 681.975L338.495 680.443L334.886 678.857L331.314 677.217L327.78 675.525L324.285 673.781L320.831 671.986L317.419 670.14L314.049 668.245L310.721 666.302L307.439 664.31L304.201 662.272L301.009 660.187L297.864 658.058L294.767 655.884L291.719 653.667L288.719 651.408L285.77 649.108L282.872 646.767L280.025 644.387L277.231 641.968L274.49 639.512L271.803 637.02L269.17 634.492L266.592 631.931L264.07 629.336L261.604 626.71L259.195 624.052L256.843 621.364L254.549 618.648L252.314 615.904L250.138 613.134L248.021 610.339L245.964 607.519L243.967 604.677L242.03 601.812L240.155 598.927L238.341 596.022L236.588 593.099L234.898 590.159L233.269 587.203L231.703 584.233L230.2 581.249L228.759 578.252L227.381 575.245L226.067 572.227L224.815 569.201L223.627 566.168L222.502 563.128L221.441 560.083L220.443 557.035L219.508 553.984L218.637 550.931L217.829 547.878L217.084 544.827L216.402 541.777L215.783 538.731L215.226 535.69L214.732 532.655L214.301 529.627L213.932 526.606L213.624 523.596L213.378 520.596L213.193 517.608L213.069 514.632L213.005 511.671L213.002 508.725L213.058 505.796L213.174 502.884L213.348 499.991L213.581 497.117L213.871 494.265L214.219 491.434L214.624 488.626L215.084 485.843L215.6 483.085L216.172 480.353L216.797 477.648L217.476 474.972L218.208 472.325L218.992 469.708L219.828 467.123L220.715 464.57L221.651 462.05L222.637 459.564L223.671 457.114L224.753 454.699L225.882 452.322L227.056 449.982L228.276 447.681L229.539 445.419L230.846 443.197L232.195 441.017L233.586 438.878L235.017 436.782L236.487 434.73L237.996 432.722L239.542 430.758L241.125 428.84L242.742 426.968L244.395 425.143L246.08 423.365L247.798 421.636L249.546 419.955L251.325 418.324L253.132 416.742L254.967 415.21L256.829 413.729L258.717 412.3L260.628 410.922L262.563 409.596L264.52 408.323L266.497 407.103L268.494 405.936L270.51 404.823L272.543 403.764L274.591 402.759L276.655 401.808L278.732 400.913L280.822 400.072L282.922 399.286L285.033 398.556L287.152 397.881L289.279 397.262L291.412 396.699L293.55 396.192L295.692 395.74L297.836 395.344L299.981 395.005L302.126 394.721L304.27 394.493L306.412 394.32L308.55 394.204L310.683 394.143L312.81 394.137L314.929 394.187L317.04 394.292L319.141 394.451L321.231 394.665L323.308 394.934L325.372 395.257L327.422 395.633L329.455 396.063L331.471 396.546L333.47 397.082L335.448 397.67L337.407 398.31L339.343 399.002L341.257 399.744L343.146 400.537L345.011 401.38L346.849 402.273L348.66 403.214L350.443 404.204L352.196 405.241L353.918 406.326L355.609 407.457L357.268 408.634L358.892 409.856L360.483 411.122L362.037 412.433L363.555 413.786L365.035 415.182L366.477 416.619L367.879 418.096L369.241 419.614L370.562 421.171L371.841 422.766L373.077 424.398L374.269 426.066L375.416 427.771L376.518 429.51L377.574 431.282L378.582 433.088L379.543 434.925L380.456 436.793L381.319 438.691L382.133 440.618L382.896 442.573L383.609 444.555L384.269 446.563L384.877 448.595L385.432 450.651L385.934 452.73L386.382 454.83L386.776 456.951L387.114 459.091L387.397 461.249L387.625 463.425L387.796 465.617L387.91 467.823L387.968 470.043L387.968 472.276L387.91 474.52L387.795 476.775L387.621 479.039L387.39 481.31L387.099 483.589L386.75 485.872L386.341 488.161L385.874 490.452L385.347 492.746L384.761 495.04L384.115 497.334L383.41 499.627L382.646 501.916L381.822 504.202L380.939 506.483L379.996 508.757L378.994 511.023L377.933 513.281L376.814 515.529L375.635 517.766L374.397 519.99L373.101 522.201L371.747 524.398L370.335 526.578L368.866 528.742L367.338 530.887L365.754 533.013L364.114 535.118L362.417 537.202L360.664 539.263L358.856 541.3L356.993 543.312L355.075 545.298L353.103 547.257L351.078 549.187L349 551.088L346.87 552.959L344.688 554.797L342.454 556.604L340.171 558.377L337.837 560.115L335.454 561.817L333.023 563.482L330.544 565.11L328.019 566.7L325.447 568.25L322.829 569.759L320.167 571.227L317.462 572.652L314.713 574.034L311.922 575.372L309.09 576.665L306.218 577.912L303.306 579.112L300.356 580.265L297.369 581.369L294.345 582.425L291.285 583.43L288.191 584.385L285.064 585.288L281.904 586.14L278.712 586.939L275.49 587.684L272.239 588.376L268.96 589.013L265.653 589.594L262.321 590.12L258.964 590.59L255.583 591.002L252.179 591.358L248.755 591.655L245.309 591.894L241.845 592.074L238.363 592.195L234.865 592.256L231.35 592.257L227.822 592.198L224.281 592.078L220.728 591.897L217.164 591.655L213.591 591.351L210.01 590.986L206.422 590.558L202.829 590.068L199.231 589.516L195.631 588.901L192.028 588.224L188.426 587.484L184.824 586.681L181.224 585.815L177.627 584.887L174.035 583.895L170.45 582.841L166.871 581.724L163.301 580.544L159.74 579.302L156.191 577.997L152.653 576.629L149.13 575.2L145.621 573.709L142.128 572.156L138.653 570.541L135.196 568.865L131.759 567.128L128.344 565.331L124.95 563.473L121.58 561.556L118.235 559.579L114.916 557.543L111.624 555.448L108.36 553.295L105.126 551.084L101.922 548.816L98.7507 546.491L95.6122 544.11L92.5079 541.674L89.4389 539.182L86.4063 536.636L83.4112 534.036L80.4547 531.384L77.5379 528.678L74.662 525.921L71.8278 523.113L69.0365 520.255L66.289 517.347L63.5864 514.391L60.9298 511.386L58.3199 508.334L55.7579 505.236L53.2446 502.093L50.7809 498.905L48.3678 495.673L46.0062 492.398L43.6969 489.081L41.4407 485.724L39.2385 482.326L37.0911 478.89L34.9994 475.415L32.964 471.903L30.9857 468.355L29.0652 464.772L27.2034 461.155L25.4007 457.506L23.6579 453.824L21.9757 450.111L20.3546 446.369L18.7953 442.598L17.2984 438.799L15.8643 434.975L14.4936 431.124L13.1868 427.25L11.9445 423.353L10.767 419.434L9.65486 415.495L8.60837 411.535L7.628 407.558L6.71406 403.564L5.86694 399.553L5.0869 395.528L4.37426 391.49L3.72931 387.439L3.15224 383.378L2.64326 379.306L2.20262 375.226L1.8304 371.139L1.52682 367.045L1.29191 362.947L1.12585 358.845L1.02861 354.741L1.00025 350.635L1.04086 346.53L1.15032 342.426L1.32864 338.325L1.57573 334.227L1.89153 330.135L2.2759 326.049L2.72872 321.97L3.24977 317.9L3.83892 313.84L4.49594 309.792L5.22055 305.756L6.01252 301.733L6.87153 297.726L7.79729 293.734L8.78944 289.76L9.84761 285.804L10.9714 281.868L12.1605 277.953L13.4143 274.06L14.7324 270.19L16.1144 266.344L17.5597 262.524L19.0678 258.73L20.6381 254.964L22.2701 251.227L23.9631 247.52L25.7165 243.844L27.5298 240.2L29.4021 236.589L31.3329 233.012L33.3214 229.47L35.3669 225.965L37.4686 222.497L39.6257 219.067L41.8375 215.677L44.1032 212.326L46.4219 209.017L48.7927 205.75L51.2148 202.526L53.6874 199.346L56.2094 196.21L58.7801 193.12L61.3983 190.077L64.0632 187.081L66.7738 184.133L69.5291 181.234L72.3281 178.384L75.1698 175.585L78.0531 172.837L80.977 170.141L83.9404 167.498L86.9422 164.908L89.9814 162.371L93.0568 159.89L96.1673 157.463L99.3118 155.092L102.489 152.777L105.698 150.519L108.938 148.319L112.206 146.176L115.503 144.091L118.827 142.066L122.177 140.099L125.551 138.192L128.949 136.345L132.368 134.559L135.809 132.833L139.269 131.168L142.748 129.564L146.243 128.022L149.755 126.542L153.281 125.123L156.82 123.767L160.372 122.473L163.934 121.242L167.506 120.073L171.086 118.967L174.673 117.924L178.266 116.944L181.863 116.026L185.463 115.172L189.066 114.38L192.668 113.651L196.27 112.985L199.871 112.381L203.468 111.84L207.06 111.361L210.647 110.945L214.226 110.59L217.798 110.297L221.36 110.066L224.911 109.896L228.45 109.787L231.976 109.739L235.487 109.751L238.983 109.822L242.462 109.954L245.923 110.144L249.364 110.394L252.786 110.701L256.185 111.067L259.562 111.49L262.915 111.969L266.243 112.505L269.544 113.096L272.819 113.743L276.065 114.444L279.281 115.199L282.467 116.007L285.622 116.868L288.743 117.781L291.831 118.745L294.885 119.759L297.902 120.824L300.883 121.937L303.826 123.098L306.731 124.306L309.596 125.562L312.421 126.863L315.204 128.208L317.945 129.598L320.643 131.031L323.298 132.506L325.907 134.023L328.471 135.58L330.988 137.176L333.459 138.811L335.881 140.483L338.255 142.192L340.58 143.936L342.855 145.715L345.079 147.527L347.252 149.371L349.373 151.247L351.442 153.154L353.457 155.089L355.419 157.053L357.327 159.043L359.181 161.06L360.979 163.102L362.722 165.167L364.409 167.254L366.04 169.364L367.614 171.493L369.131 173.641L370.59 175.808L371.992 177.991L373.336 180.19L374.621 182.404L375.848 184.631L377.017 186.869L378.126 189.119L379.177 191.379L380.168 193.647L381.1 195.922L381.973 198.204L382.786 200.49L383.54 202.78L384.234 205.073L384.869 207.367L385.445 209.662L385.961 211.955L386.418 214.246L386.816 216.534L387.155 218.817L387.435 221.094L387.657 223.364L387.82 225.626L387.925 227.879L387.972 230.121L387.962 232.352L387.894 234.57L387.769 236.774L387.588 238.963L387.351 241.135L387.058 243.291L386.71 245.427L386.307 247.545L385.849 249.641L385.338 251.716L384.773 253.768L384.156 255.796L383.486 257.799L382.765 259.776L381.992 261.726L381.17 263.648L380.297 265.541L379.376 267.404L378.407 269.235L377.389 271.035L376.325 272.802L375.215 274.535L374.06 276.233L372.86 277.895L371.617 279.521L370.331 281.109L369.002 282.659L367.633 284.169L366.224 285.64L364.775 287.069L363.288 288.458L361.763 289.803L360.203 291.106L358.606 292.365L356.975 293.579L355.311 294.747L353.615 295.87L351.887 296.947L350.128 297.976L348.34 298.957L346.524 299.89L344.681 300.773L342.812 301.607L340.918 302.391L339.001 303.125L337.06 303.807L335.098 304.438L333.116 305.017L331.115 305.543L329.095 306.017L327.059 306.438L325.007 306.805L322.94 307.118L320.86 307.377L318.768 307.581L316.666 307.731L314.553 307.826L312.432 307.866L310.305 307.85L308.171 307.78L306.032 307.653L303.89 307.471L301.745 307.233L299.6 306.939L297.455 306.589L295.311 306.184L293.17 305.722L291.033 305.205L288.901 304.632L286.775 304.003L284.657 303.318L282.548 302.578L280.45 301.783L278.362 300.932L276.287 300.027L274.226 299.067L272.18 298.052L270.15 296.983L268.138 295.86L266.144 294.684L264.17 293.454L262.218 292.172L260.287 290.837L258.38 289.45L256.497 288.011L254.639 286.522L252.809 284.981L251.007 283.39L249.233 281.75L247.49 280.06L245.778 278.322L244.099 276.536L242.452 274.703L240.841 272.823L239.265 270.897L237.725 268.925L236.223 266.909L234.76 264.849L233.336 262.745L231.953 260.599L230.611 258.411L229.312 256.182L228.056 253.914L226.844 251.605L225.678 249.259L224.557 246.874L223.484 244.453L222.458 241.997L221.481 239.505L220.553 236.979L219.676 234.42L218.849 231.829L218.074 229.207L217.352 226.555L216.682 223.873L216.066 221.164L215.505 218.427L214.998 215.664L214.548 212.877L214.153 210.065L213.816 207.23L213.535 204.374L213.313 201.497L213.149 198.6L213.044 195.685L212.998 192.753L213.012 189.804L213.087 186.84L213.221 183.863L213.417 180.872L213.674 177.87L213.993 174.858L214.373 171.836L214.816 168.807L215.32 165.77L215.888 162.728L216.518 159.681L217.211 156.631L217.967 153.579L218.787 150.527L219.67 147.474L220.616 144.424L221.625 141.376L222.698 138.332L223.834 135.293L225.033 132.261L226.296 129.236L227.622 126.22L229.011 123.215L230.462 120.22L231.977 117.238L233.554 114.27L235.194 111.317L236.895 108.38L238.659 105.46L240.484 102.559L242.37 99.6777L244.317 96.817L246.325 93.9784L248.392 91.1629L250.52 88.3718L252.707 85.6063L254.952 82.8673L257.256 80.1562L259.618 77.4739L262.038 74.8217L264.513 72.2006L267.046 69.6117L269.633 67.056L272.276 64.5348L274.973 62.049L277.723 59.5996L280.527 57.1878L283.383 54.8145L286.29 52.4807L289.248 50.1874L292.256 47.9357L295.314 45.7264L298.42 43.5605L301.573 41.4391L304.773 39.3629L308.019 37.3328L311.309 35.3498L314.644 33.4148L318.022 31.5285L321.442 29.6919L324.903 27.9057L328.405 26.1708L331.945 24.4878L335.524 22.8577L339.14 21.281L342.793 19.7586L346.48 18.2912L350.201 16.8794L353.956 15.5238L357.742 14.2252L361.559 12.9842L365.405 11.8013L369.28 10.6771L373.183 9.61228L377.111 8.60722L381.065 7.66252L385.042 6.77861L389.042 5.95603L393.063 5.19519L397.104 4.4965L401.165 3.8604L405.243 3.28722L409.338 2.77731L413.448 2.33106L417.572 1.94875L421.708 1.63064L425.857 1.37703L430.015 1.18811L434.182 1.06411L438.358 1.00522L442.539 1.01162L446.726 1.08339L450.916 1.22072L455.109 1.42366L459.303 1.69228L463.497 2.02664L467.69 2.4267L471.881 2.89255L476.067 3.42403L480.248 4.02123L484.423 4.68392L488.589 5.41212L492.747 6.20564L496.895 7.06431L501.03 7.988L505.153 8.97649L509.262 10.0295L513.355 11.1469L517.431 12.3283L521.49 13.5734L525.529 14.882L529.548 16.2537L533.545 17.6881L537.519 19.1848L541.469 20.7433L545.394 22.3634L549.292 24.0444L553.162 25.786L557.004 27.5876L560.815 29.4486L564.595 31.3686L568.342 33.347L572.056 35.3831L575.736 37.4764L579.379 39.6261L582.986 41.8318L586.554 44.0926L590.084 46.4079L593.573 48.777L597.022 51.1991L600.428 53.6735L603.791 56.1993L607.109 58.7758L610.383 61.4023L613.61 64.0777L616.791 66.8014L619.923 69.5724L623.007 72.3898L626.04 75.2528L629.023 78.1604L631.955 81.1117L634.834 84.1057L637.66 87.1415L640.432 90.218L643.149 93.3344L645.811 96.4895L648.417 99.6824L650.966 102.912L653.457 106.177L655.89 109.477L658.263 112.811L660.578 116.176L662.832 119.574L665.026 123.001L667.158 126.457L669.229 129.942L671.237 133.453L673.182 136.99L675.064 140.552L676.883 144.137L678.637 147.744L680.327 151.372L681.952 155.02L683.512 158.686L685.007 162.37L686.435 166.07L687.798 169.785L689.094 173.514L690.324 177.256L691.487 181.009L692.584 184.772L693.613 188.543L694.575 192.323L695.471 196.109L696.298 199.9L697.059 203.695L697.752 207.493L698.378 211.292L698.937 215.091L699.428 218.89L699.853 222.686L700.21 226.479L700.501 230.267L700.725 234.049L700.883 237.824L700.974 241.591L701 245.348L700.959 249.095L700.853 252.829L700.682 256.551L700.447 260.258L700.146 263.95L699.782 267.624L699.354 271.282L698.863 274.92L698.31 278.537L697.694 282.134L697.016 285.708L696.277 289.259L695.477 292.785L694.618 296.285L693.699 299.759L692.721 303.205L691.685 306.621L690.591 310.008L689.44 313.364L688.234 316.687L686.971 319.978L685.655 323.234L684.284 326.456L682.86 329.641L681.384 332.79L679.856 335.9L678.278 338.972L676.65 342.005L674.973 344.996L673.247 347.947L671.475 350.854L669.657 353.719L667.794 356.54L665.886 359.317L663.935 362.047L661.942 364.732L659.907 367.37L657.833 369.96L655.719 372.501L653.567 374.994L651.378 377.437L649.153 379.829L646.894 382.171L644.6 384.461L642.274 386.699L639.917 388.884L637.529 391.016L635.111 393.095L632.666 395.12L630.194 397.089L627.696 399.004L625.174 400.864L622.629 402.667L620.061 404.414L617.473 406.105L614.864 407.739L612.238 409.316L609.594 410.836L606.934 412.297L604.26 413.701L601.571 415.047L598.871 416.335L596.16 417.564L593.439 418.735L590.709 419.847L587.972 420.9L585.229 421.895L582.482 422.83L579.731 423.707L576.978 424.525L574.223 425.285L571.469 425.986L568.717 426.628L565.967 427.212L563.222 427.737L560.482 428.204L557.748 428.614L555.022 428.965L552.305 429.259L549.598 429.496L546.902 429.676L544.22 429.799L541.551 429.866L538.897 429.877L536.259 429.832L533.639 429.732L531.037 429.577L528.455 429.368L525.894 429.105L523.354 428.789L520.838 428.419L518.347 427.998L515.88 427.524L513.44 427L511.028 426.425L508.644 425.799L506.29 425.125L503.967 424.401L501.675 423.63L499.416 422.811L497.191 421.946L495.001 421.035L492.846 420.078L490.728 419.078L488.648 418.033L486.606 416.946L484.603 415.817L482.641 414.647L480.72 413.437L478.841 412.187L477.005 410.899L475.212 409.573L473.464 408.211L471.761 406.813L470.104 405.38L468.493 403.914L466.93 402.414L465.415 400.883L463.949 399.321L462.531 397.73L461.164 396.109L459.848 394.461L458.582 392.786L457.369 391.086L456.207 389.361L455.099 387.613L454.043 385.843L453.041 384.051L452.093 382.239L451.2 380.408L450.362 378.56L449.579 376.695L448.852 374.814L448.18 372.918L447.565 371.01L447.006 369.089L446.504 367.158L446.059 365.217L445.672 363.267L445.341 361.31L445.068 359.346L444.853 357.378L444.695 355.405L444.595 353.43L444.553 351.454L444.568 349.477L444.642 347.502L444.773 345.528L444.962 343.558L445.208 341.592L445.513 339.632L445.874 337.678L446.293 335.733L446.769 333.797L447.301 331.871L447.891 329.957L448.536 328.055L449.238 326.168L449.995 324.295L450.808 322.439L451.676 320.6L452.599 318.779L453.576 316.978L454.607 315.198L455.691 313.439L456.829 311.703L458.018 309.992L459.26 308.305L460.553 306.645L461.897 305.011L463.291 303.406L464.735 301.831L466.228 300.285L467.769 298.771L469.358 297.29L470.994 295.841L472.676 294.427L474.403 293.048L476.176 291.706L477.992 290.4L479.852 289.133L481.753 287.904L483.697 286.715L485.681 285.567L487.705 284.461L489.768 283.397L491.869 282.376L494.007 281.399L496.181 280.467L498.39 279.581L500.633 278.74L502.91 277.947L505.219 277.202L507.559 276.505L509.929 275.857L512.329 275.258L514.756 274.71L517.21 274.213L519.691 273.768L522.196 273.374L524.724 273.034L527.275 272.746L529.848 272.512L532.441 272.332L535.053 272.207L537.683 272.137L540.329 272.122L542.992 272.163L545.668 272.261L548.358 272.414L551.06 272.625L553.772 272.893L556.494 273.218L559.225 273.6L561.962 274.041L564.706 274.54L567.453 275.097L570.205 275.712L572.958 276.386L575.712 277.118L578.466 277.91L581.218 278.76L583.968 279.668L586.713 280.636L589.453 281.662L592.186 282.747L594.911 283.891L597.627 285.093L600.332 286.354L603.026 287.673L605.707 289.05L608.374 290.486L611.025 291.979L613.66 293.529L616.277 295.137L618.874 296.802L621.452 298.523L624.008 300.301L626.541 302.135L629.05 304.024L631.534 305.969L633.992 307.968L636.422 310.022L638.823 312.13L641.195 314.291L643.536 316.504L645.844 318.771L648.12 321.089L650.36 323.458L652.566 325.878L654.735 328.348L656.867 330.867L658.959 333.435L661.012 336.05L663.024 338.714L664.995 341.423L666.923 344.179L668.807 346.979L670.646 349.824L672.439 352.712L674.186 355.643L675.885 358.616L677.536 361.63L679.137 364.683L680.688 367.776L682.188 370.908L683.636 374.076L685.031 377.281L686.373 380.522L687.661 383.797L688.893 387.105L690.069 390.447L691.189 393.819L692.252 397.222L693.257 400.655L694.203 404.115L695.09 407.604L695.917 411.118L696.684 414.657L697.39 418.221L698.034 421.807L698.617 425.416L699.137 429.045L699.594 432.693L699.987 436.36L700.317 440.044L700.582 443.744L700.783 447.459L700.919 451.188L700.989 454.929L700.994 458.681L700.933 462.444L700.806 466.215L700.612 469.995L700.352 473.78L700.026 477.571L699.632 481.366L699.171 485.163L698.643 488.963L698.048 492.762L697.386 496.561L696.656 500.357L695.859 504.15L694.995 507.939L694.064 511.721L693.065 515.497L692 519.264L690.867 523.021L689.668 526.768L688.402 530.503L687.07 534.225L685.671 537.932L684.207 541.623L682.677 545.298L681.082 548.955L679.422 552.592L677.697 556.209L675.908 559.804L674.055 563.377L672.138 566.925L670.159 570.448L668.117 573.945L666.013 577.415L663.848 580.856L661.621 584.267L659.334 587.647L656.988 590.996L654.582 594.311L652.117 597.592L649.595 600.838L647.015 604.048L644.379 607.221L641.687 610.355L638.94 613.45L636.139 616.505L633.284 619.518L630.377 622.489L627.417 625.417L624.407 628.3L621.346 631.139L618.236 633.931L615.077 636.677L611.871 639.375L608.619 642.024L605.321 644.623L601.978 647.173L598.592 649.671L595.163 652.117L591.692 654.51L588.181 656.85L584.63 659.136L581.041 661.368L577.414 663.543L573.751 665.662L570.053 667.725L566.321 669.73L562.555 671.677L558.758 673.565L554.931 675.394L551.074 677.163L547.188 678.872L543.276 680.52L539.337 682.107L535.374 683.632L531.387 685.095L527.378 686.496L523.348 687.833L519.298 689.108L515.23 690.318L511.144 691.465L507.043 692.548L502.926 693.566L498.796 694.519L494.654 695.408L490.501 696.231L486.338 696.99L482.167 697.683L477.989 698.31L473.804 698.872L469.616 699.368L465.424 699.798L461.23 700.162L457.036 700.461L452.842 700.694L448.65 700.862L444.462 700.964L440.278 701L436.1 700.971L431.929 700.877L427.766 700.718L423.613 700.494L419.471 700.205L415.341 699.853L411.224 699.436L407.122 698.955L403.036 698.411L398.968 697.804L394.917 697.134L390.887 696.401L386.877 695.607L382.889 694.751L378.924 693.834L374.984 692.857L371.07 691.82L367.182 690.722L363.323 689.567L359.492 688.352L355.691 687.08L351.922 685.75L348.186 684.364L344.483 682.922L340.814 681.425L337.181 679.873L333.585 678.268L330.027 676.609L326.507 674.898L323.027 673.135L319.588 671.322L316.191 669.458L312.836 667.545L309.525 665.584L306.258 663.576L303.037 661.52L299.862 659.42L296.735 657.274L293.655 655.085L290.624 652.852L287.643 650.578L284.712 648.263L281.833 645.907L279.005 643.513L276.23 641.081L273.508 638.612L270.841 636.107L268.228 633.567L265.67 630.993L263.168 628.387L260.723 625.748L258.334 623.08L256.004 620.382L253.731 617.655L251.517 614.902L249.363 612.123L247.267 609.318L245.232 606.49L243.257 603.639L241.343 600.767L239.489 597.875L237.698 594.964L235.968 592.034L234.3 589.088L232.694 586.127L231.15 583.151L229.67 580.163L228.252 577.162L226.897 574.151L225.605 571.13L224.377 568.101L223.212 565.065L222.11 562.024L221.071 558.977L220.096 555.928L219.185 552.876L218.336 549.823L217.551 546.771L216.829 543.72L216.17 540.671L215.573 537.627L215.04 534.588L214.569 531.555L214.16 528.529L213.813 525.513L213.528 522.506L213.304 519.51L213.141 516.526L213.039 513.556L212.997 510.6L213.016 507.66L213.093 504.737L213.23 501.832L213.426 498.945L213.68 496.079L213.991 493.235L214.359 490.412L214.784 487.613L215.265 484.839L215.801 482.09L216.392 479.368L217.037 476.674L217.736 474.008L218.487 471.372L219.29 468.766L220.144 466.193L221.049 463.652L222.003 461.144L223.007 458.671L224.058 456.233L225.157 453.832L226.303 451.468L227.494 449.142L228.729 446.855L230.009 444.608L231.331 442.401L232.695 440.236L234.101 438.113L235.546 436.032L237.03 433.996L238.553 432.004L240.112 430.057L241.708 428.155L243.338 426.3L245.003 424.492L246.7 422.732L248.429 421.02L250.188 419.357L251.978 417.744L253.795 416.18L255.64 414.667L257.511 413.205L259.408 411.794L261.328 410.435L263.271 409.128L265.235 407.874L267.22 406.673L269.224 405.526L271.246 404.432L273.284 403.393L275.339 402.407L277.407 401.477L279.489 400.601L281.583 399.78L283.687 399.015L285.801 398.305L287.923 397.65L290.053 397.052L292.187 396.509L294.327 396.021L296.469 395.59L298.614 395.215L300.76 394.895L302.905 394.632L305.048 394.424L307.189 394.272L309.325 394.175L311.456 394.134L313.58 394.149L315.696 394.219L317.804 394.343L319.901 394.523L321.986 394.757L324.059 395.045L326.118 395.387L328.161 395.783L330.189 396.232L332.199 396.735L334.19 397.29L336.161 397.896L338.112 398.555L340.04 399.265L341.945 400.026L343.826 400.837L345.681 401.698L347.51 402.609L349.31 403.568L351.082 404.575L352.825 405.629L354.536 406.731L356.215 407.879L357.861 409.072L359.474 410.31L361.051 411.593L362.592 412.919L364.097 414.288L365.563 415.698L366.991 417.15L368.378 418.643L369.726 420.174L371.031 421.745L372.294 423.354L373.514 424.999L374.69 426.681L375.821 428.398L376.906 430.149L377.945 431.934L378.937 433.751L379.88 435.6L380.775 437.479L381.621 439.388L382.416 441.325L383.161 443.29L383.854 445.281L384.496 447.297L385.085 449.339L385.621 451.403L386.103 453.49L386.531 455.597L386.905 457.725L387.223 459.872L387.486 462.037L387.693 464.219L387.844 466.416L387.938 468.627L387.974 470.852L387.954 473.089L387.875 475.337L387.739 477.595L387.544 479.862L387.291 482.136L386.979 484.417L386.608 486.702L386.178 488.992L385.689 491.285L385.141 493.579L384.533 495.873L383.866 498.166L383.14 500.458L382.354 502.746L381.508 505.03L380.604 507.309L379.639 509.58L378.616 511.844L377.534 514.098L376.392 516.342L375.192 518.575L373.934 520.794L372.617 523L371.241 525.191L369.808 527.365L368.318 529.522L366.77 531.661L365.165 533.779L363.504 535.877L361.787 537.953L360.014 540.005L358.186 542.033L356.303 544.036L354.365 546.012L352.374 547.961L350.33 549.881L348.233 551.771L346.084 553.63L343.883 555.457L341.631 557.251L339.329 559.011L336.978 560.736L334.578 562.426L332.129 564.078L329.633 565.692L327.091 567.267L324.502 568.802L321.868 570.296L319.19 571.749L316.469 573.159L313.705 574.525L310.899 575.846L308.052 577.123L305.166 578.353L302.24 579.536L299.276 580.671L296.275 581.758L293.238 582.795L290.166 583.782L287.06 584.719L283.92 585.604L280.749 586.436L277.546 587.216L274.314 587.942L271.052 588.613L267.763 589.23L264.447 589.792L261.105 590.297L257.739 590.746L254.35 591.138L250.939 591.472L247.506 591.748L244.054 591.966L240.583 592.125L237.095 592.224L233.591 592.263L230.071 592.243L226.538 592.162L222.992 592.02L219.435 591.816L215.868 591.552L212.292 591.226L208.709 590.838L205.119 590.387L201.524 589.875L197.925 589.3L194.323 588.663L190.721 587.963L187.118 587.2L183.517 586.374L179.918 585.486L176.323 584.534L172.733 583.52L169.15 582.443L165.574 581.303L162.007 580.1L158.45 578.835L154.905 577.508L151.373 576.118L147.855 574.666L144.352 573.152L140.865 571.577L137.396 569.94L133.947 568.242L130.517 566.483L127.109 564.664L123.724 562.784L120.363 560.845L117.027 558.847L113.718 556.789L110.436 554.673L107.183 552.499L103.959 550.267L100.767 547.979L97.6078 545.633L94.4815 543.232L91.3899 540.776L88.3339 538.264L85.3148 535.699L82.3336 533.08L79.3915 530.408L76.4894 527.684L73.6284 524.908L70.8097 522.082L68.0342 519.205L65.3029 516.28L62.6169 513.306L59.9771 510.284L57.3845 507.215L54.84 504.101L52.3446 500.941L49.8992 497.737L47.5047 494.489L45.1619 491.199L42.8718 487.868L40.6351 484.495L38.4528 481.084L36.3255 477.633L34.2541 474.145L32.2394 470.62L30.282 467.059L28.3827 463.463L26.5422 459.835L24.7612 456.173L23.0403 452.48L21.3803 448.756L19.7815 445.003L18.2448 441.222L16.7706 437.414L15.3595 433.58L14.0119 429.721L12.7285 425.838L11.5097 421.933L10.3558 418.007L9.26742 414.06L8.24489 410.094L7.2886 406.11L6.39888 402.11L5.57605 398.094L4.82044 394.064L4.13235 390.021L3.51202 385.966L2.95964 381.901L2.47542 377.826L2.05962 373.744L1.71228 369.654L1.4336 365.558L1.22367 361.459L1.08259 357.356L1.01037 353.251L1.00703 349.145L1.07262 345.04L1.20707 340.937L1.41036 336.837L1.6824 332.741L2.02311 328.651L2.43231 324.567L2.90993 320.492L3.45575 316.425L4.06955 312.37L4.75112 308.325L5.5002 304.294L6.31654 300.277L7.19984 296.275L8.14971 292.29L9.1659 288.322L10.2479 284.373L11.3955 280.445L12.6081 276.537L13.8853 272.653L15.2267 268.791L16.6317 264.955L18.0998 261.144L19.6306 257.36L21.2233 253.605L22.8775 249.878L24.5925 246.182L26.3678 242.517L28.2025 238.885L30.0962 235.287L32.048 231.722L34.0572 228.194L36.1232 224.702L38.2451 221.248L40.4222 217.832L42.6537 214.456L44.9386 211.121L47.2764 207.826L49.6659 204.575L52.1064 201.366L54.5971 198.202L57.1368 195.083L59.7248 192.01L62.3601 188.984L65.0417 186.005L67.7687 183.075L70.54 180.194L73.3546 177.362L76.2115 174.582L79.1097 171.853L82.048 169.176L85.0255 166.552L88.041 163.981L91.0934 161.464L94.1817 159.002L97.3046 156.596L100.461 154.245L103.65 151.951L106.87 149.714L110.121 147.534L113.4 145.413L116.707 143.349L120.04 141.345L123.399 139.4L126.782 137.515L130.187 135.69L133.615 133.925L137.063 132.221L140.529 130.579L144.014 128.997L147.516 127.478L151.033 126.02L154.564 124.624L158.108 123.29L161.663 122.019L165.229 120.811L168.804 119.665L172.387 118.581L175.976 117.561L179.571 116.604L183.169 115.709L186.771 114.877L190.373 114.108L193.976 113.402L197.577 112.759L201.176 112.178L204.772 111.659L208.362 111.203L211.947 110.809L215.524 110.477L219.092 110.206L222.65 109.997L226.197 109.85L229.731 109.763L233.252 109.736L236.758 109.77L240.248 109.863L243.72 110.016L247.174 110.228L250.609 110.499L254.022 110.827L257.413 111.214L260.782 111.657L264.126 112.157L267.444 112.713L270.736 113.325L274 113.991L277.236 114.712L280.441 115.486L283.616 116.314L286.758 117.194L289.868 118.125L292.943 119.107L295.984 120.14L298.988 121.222L301.956 122.353L304.885 123.531L307.776 124.757L310.626 126.029L313.436 127.346L316.204 128.708L318.93 130.113L321.612 131.562L324.25 133.052L326.843 134.583L329.39 136.155L331.89 137.765L334.343 139.413L336.748 141.099L339.105 142.821L341.411 144.578L343.668 146.369L345.873 148.193L348.028 150.049L350.13 151.936L352.179 153.853L354.176 155.799L356.118 157.772L358.006 159.772L359.84 161.798L361.618 163.848L363.341 165.922L365.008 168.017L366.618 170.134L368.171 172.271L369.667 174.426L371.106 176.599L372.486 178.788L373.809 180.992L375.073 183.211L376.279 185.442L377.426 187.685L378.514 189.938L379.543 192.201L380.513 194.472L381.424 196.75L382.275 199.033L383.066 201.321L383.799 203.612L384.472 205.906L385.085 208.2L385.639 210.494L386.134 212.787L386.569 215.077L386.946 217.363L387.263 219.644L387.522 221.919L387.723 224.186L387.865 226.445L387.949 228.694L387.975 230.932L387.944 233.159L387.855 235.372L387.71 237.57L387.509 239.753L387.251 241.92L386.938 244.068L386.57 246.198L386.147 248.308L385.67 250.397L385.139 252.463L384.555 254.507L383.918 256.526L383.23 258.52L382.49 260.487L381.7 262.427L380.859 264.338L379.969 266.22L379.03 268.072L378.043 269.892L377.009 271.68L375.928 273.435L374.801 275.155L373.63 276.84L372.414 278.489L371.155 280.101L369.853 281.676L368.51 283.211L367.126 284.708L365.702 286.163L364.24 287.578L362.739 288.951L361.201 290.281L359.627 291.568L358.018 292.81L356.375 294.008L354.699 295.16L352.991 296.266L351.252 297.326L349.483 298.337L347.685 299.301L345.859 300.216L344.006 301.082L342.128 301.898L340.225 302.664L338.299 303.379L336.351 304.042L334.381 304.654L332.392 305.214L330.384 305.721L328.358 306.176L326.316 306.577L324.258 306.924L322.187 307.218L320.102 307.457L318.006 307.642L315.9 307.772L313.784 307.847L311.661 307.867L309.531 307.831L307.395 307.74L305.255 307.593L303.112 307.391L300.967 307.133L298.821 306.819L296.676 306.449L294.533 306.023L292.394 305.541L290.258 305.003L288.129 304.41L286.006 303.761L283.891 303.056L281.786 302.296L279.691 301.481L277.608 300.61L275.538 299.685L273.482 298.705L271.442 297.67L269.418 296.582L267.412 295.44L265.426 294.244L263.459 292.995L261.514 291.694L259.592 290.34L257.693 288.934L255.82 287.477L253.972 285.968L252.152 284.409L250.36 282.801L248.597 281.142L246.865 279.435L245.165 277.68L243.497 275.876L241.864 274.026L240.265 272.129L238.702 270.186L237.176 268.198L235.688 266.166L234.238 264.09L232.829 261.971L231.461 259.81L230.134 257.607L228.851 255.364L227.611 253.08L226.416 250.758L225.266 248.398L224.162 246L223.106 243.566L222.098 241.096L221.139 238.592L220.229 236.054L219.37 233.483L218.562 230.881L217.806 228.248L217.102 225.585L216.452 222.893L215.856 220.174L215.315 217.427L214.828 214.655L214.398 211.859L214.024 209.039L213.707 206.196L213.448 203.332L213.247 200.448L213.104 197.544L213.021 194.623L212.996 191.684L213.032 188.73L213.128 185.761L213.285 182.779L213.503 179.784L213.783 176.778L214.124 173.762L214.526 170.737L214.992 167.705L215.519 164.667L216.109 161.623L216.762 158.575L217.478 155.524L218.258 152.472L219.1 149.419L220.006 146.367L220.975 143.317L222.007 140.27L223.103 137.228L224.262 134.192L225.484 131.162L226.77 128.14L228.118 125.128L229.53 122.126L231.005 119.137L232.542 116.16L234.142 113.197L235.804 110.249L237.528 107.318L239.314 104.405L241.161 101.511L243.07 98.6369L245.039 95.7841L247.068 92.9538L249.158 90.1471L251.307 87.3651L253.515 84.609L255.782 81.8801L258.107 79.1793L260.49 76.5078L262.93 73.8667L265.426 71.2572L267.978 68.6802L270.586 66.1369L273.249 63.6285L275.965 61.1558L278.735 58.7199L281.558 56.3219L284.432 53.9628L287.358 51.6436L290.334 49.3653L293.36 47.1289L296.435 44.9352L299.559 42.7854L302.729 40.6802L305.945 38.6207L309.208 36.6076L312.515 34.6419L315.865 32.7245L319.258 30.8562L322.693 29.0377L326.169 27.2701L329.685 25.5539L333.24 23.8901L336.833 22.2792L340.462 20.7222L344.127 19.2197L347.827 17.7723L351.56 16.3808L355.326 15.0459L359.124 13.7681L362.952 12.5481L366.809 11.3865L370.694 10.2838L374.606 9.24054L378.543 8.25734L382.505 7.33467L386.491 6.47296L390.499 5.67273L394.527 4.9344L398.576 4.25838L402.643 3.64507L406.727 3.09483L410.828 2.60799L414.943 2.18492L419.072 1.82585L423.213 1.53114L427.365 1.30098L431.527 1.13559L435.697 1.03519L439.874 1L444.058 1.03011L448.246 1.12568L452.438 1.28678L456.631 1.51356L460.826 1.80605L465.019 2.16425L469.212 2.58819L473.4 3.07784L477.585 3.6332L481.764 4.25417L485.936 4.94067L490.1 5.69256L494.254 6.50975L498.397 7.39206L502.528 8.33927L506.646 9.35122L510.749 10.4277L514.836 11.5683L518.907 12.7729L522.958 14.0411L526.99 15.3726L531.001 16.7671L534.99 18.2241L538.956 19.7433L542.897 21.3242L546.812 22.9665L550.7 24.6695L554.56 26.4329L558.39 28.2562L562.19 30.1387L565.959 32.0799L569.694 34.0793L573.396 36.1362L577.062 38.2501L580.692 40.4203L584.285 42.646L587.84 44.9267L591.355 47.2616L594.83 49.65L598.263 52.0911L601.653 54.5843L605 57.1286L608.303 59.7233L611.56 62.3677L614.77 65.0607L617.933 67.8017L621.048 70.5896L624.113 73.4237L627.129 76.303L630.093 79.2265L633.006 82.1934L635.866 85.2027L638.672 88.2534L641.425 91.3445L644.122 94.4751L646.763 97.644L649.348 100.85L651.876 104.093L654.346 107.371L656.758 110.683L659.11 114.028L661.403 117.406L663.635 120.814L665.807 124.252L667.917 127.719L669.965 131.213L671.95 134.734L673.873 138.28L675.732 141.85L677.527 145.443L679.258 149.058L680.925 152.694L682.526 156.348L684.062 160.021L685.533 163.711L686.938 167.417L688.276 171.137L689.549 174.871L690.754 178.617L691.893 182.373L692.965 186.14L693.97 189.914L694.908 193.696L695.779 197.484L696.582 201.277L697.318 205.073L697.987 208.871L698.589 212.671L699.123 216.47L699.59 220.268L699.99 224.063L700.324 227.854L700.59 231.64L700.79 235.42L700.924 239.192L700.991 242.956L700.993 246.709L700.928 250.452L700.799 254.182L700.604 257.898L700.345 261.6L700.022 265.285L699.634 268.954L699.183 272.604L698.67 276.235L698.093 279.845L697.455 283.434L696.755 287L695.994 290.542L695.172 294.059L694.291 297.549L693.351 301.013L692.351 304.448L691.294 307.854L690.18 311.23L689.009 314.574L687.782 317.885L686.5 321.164L685.163 324.408L683.773 327.616L682.33 330.788L680.835 333.923L679.289 337.02L677.692 340.077L676.046 343.095L674.352 346.072L672.61 349.007L670.821 351.899L668.986 354.748L667.106 357.553L665.183 360.313L663.217 363.027L661.208 365.695L659.159 368.315L657.07 370.888L654.942 373.411L652.777 375.886L650.575 378.311L648.337 380.685L646.065 383.008L643.76 385.279L641.422 387.498L639.053 389.664L636.655 391.777L634.227 393.836L631.772 395.841L629.291 397.791L626.784 399.685L624.253 401.525L621.699 403.308L619.124 405.035L616.528 406.705L613.913 408.318L611.28 409.874L608.63 411.373L605.965 412.814L603.285 414.197L600.593 415.521L597.888 416.788L595.173 417.996L592.449 419.145L589.717 420.236L586.977 421.268L584.233 422.241L581.484 423.155L578.732 424.011L575.978 424.808L573.224 425.546L570.47 426.226L567.719 426.847L564.97 427.409L562.227 427.913L559.489 428.36L556.757 428.748L554.035 429.079L551.321 429.352L548.618 429.568L545.927 429.727L543.249 429.83L540.586 429.876L537.937 429.867L535.306 429.802L532.692 429.682L530.097 429.508L527.523 429.279L524.969 428.996L522.439 428.661L519.931 428.272L517.449 427.832L514.992 427.34L512.562 426.797L510.159 426.203L507.786 425.56L505.443 424.868L503.131 424.127L500.852 423.338L498.605 422.502L496.392 421.62L494.215 420.693L492.073 419.72L489.969 418.704L487.902 417.644L485.875 416.541L483.887 415.397L481.939 414.212L480.033 412.988L478.17 411.724L476.349 410.422L474.572 409.083L472.84 407.708L471.154 406.297L469.514 404.852L467.92 403.373L466.375 401.862L464.877 400.32L463.429 398.747L462.03 397.145L460.681 395.514L459.383 393.856L458.136 392.172L456.941 390.463L455.799 388.73L454.709 386.973L453.673 385.195L452.691 383.396L451.763 381.577L450.89 379.74L450.071 377.885L449.309 376.014L448.601 374.127L447.95 372.227L447.356 370.314L446.818 368.39L446.336 366.454L445.912 364.51L445.545 362.557L445.235 360.598L444.983 358.632L444.789 356.662L444.652 354.689L444.573 352.713L444.552 350.737L444.588 348.76L444.683 346.785L444.835 344.812L445.045 342.844L445.312 340.88L445.637 338.922L446.019 336.971L446.459 335.029L446.955 333.097L447.509 331.175L448.118 329.265L448.784 327.369L449.506 325.486L450.284 323.62L451.117 321.769L452.005 319.937L452.947 318.123L453.944 316.329L454.994 314.557L456.098 312.806L457.254 311.079L458.463 309.377L459.724 307.699L461.035 306.049L462.397 304.425L463.81 302.831L465.271 301.266L466.782 299.732L468.34 298.23L469.946 296.76L471.599 295.324L473.298 293.922L475.041 292.557L476.83 291.227L478.662 289.936L480.537 288.682L482.454 287.468L484.412 286.294L486.411 285.161L488.449 284.07L490.526 283.021L492.64 282.016L494.791 281.056L496.978 280.14L499.2 279.27L501.456 278.447L503.744 277.671L506.065 276.943L508.416 276.264L510.797 275.634L513.206 275.054L515.644 274.524L518.108 274.046L520.597 273.619L523.111 273.245L525.648 272.923L528.207 272.655L530.787 272.441L533.387 272.281L536.005 272.175L538.641 272.125L541.294 272.131L543.961 272.192L546.643 272.31L549.337 272.484L552.043 272.715L554.759 273.004L557.484 273.35L560.218 273.754L562.957 274.215L565.702 274.735L568.452 275.313L571.204 275.95L573.958 276.645L576.712 277.399L579.465 278.211L582.217 279.083L584.965 280.013L587.708 281.002L590.445 282.049L593.176 283.156L595.898 284.321L598.61 285.544L601.311 286.826L604.001 288.166L606.677 289.565L609.338 291.021L611.983 292.535L614.612 294.106L617.222 295.735L619.812 297.42L622.382 299.162L624.93 300.96L627.454 302.814L629.954 304.724L632.429 306.688L634.877 308.707L637.297 310.781L639.687 312.908L642.048 315.088L644.377 317.321L646.674 319.606L648.937 321.943L651.165 324.33L653.358 326.768L655.513 329.256L657.631 331.793L659.709 334.378L661.747 337.012L663.745 339.692L665.7 342.418L667.611 345.19L669.479 348.007L671.302 350.867L673.079 353.771L674.808 356.717L676.49 359.705L678.123 362.733L679.706 365.801L681.239 368.908L682.72 372.053L684.149 375.235L685.525 378.453L686.847 381.707L688.114 384.994L689.326 388.314L690.482 391.667L691.582 395.051L692.623 398.464L693.607 401.907L694.532 405.378L695.397 408.876L696.203 412.4L696.947 415.948L697.631 419.52L698.253 423.115L698.813 426.73L699.31 430.367L699.744 434.022L700.114 437.695L700.42 441.385L700.662 445.091L700.84 448.811L700.952 452.544L700.999 456.29L700.98 460.046L700.895 463.812L700.743 467.586L700.526 471.368L700.241 475.155L699.89 478.948L699.472 482.744L698.987 486.542L698.435 490.342L697.816 494.141L697.129 497.939L696.375 501.734L695.553 505.526L694.665 509.312L693.709 513.092L692.686 516.865L691.596 520.629L690.439 524.383L689.216 528.125L687.926 531.855L686.57 535.572L685.148 539.274L683.659 542.959L682.106 546.627L680.487 550.277L678.803 553.907L677.055 557.516L675.243 561.103L673.367 564.667L671.427 568.207L669.425 571.72L667.36 575.208L665.234 578.667L663.046 582.097L660.798 585.497L658.489 588.866L656.121 592.203L653.694 595.506L651.208 598.775L648.665 602.008L646.065 605.204L643.409 608.363L640.697 611.483L637.93 614.564L635.109 617.603L632.235 620.601L629.308 623.557L626.33 626.469L623.302 629.336L620.223 632.158L617.095 634.933L613.919 637.662L610.696 640.342L607.427 642.973L604.113 645.554L600.754 648.085L597.352 650.564L593.908 652.992L590.422 655.366L586.897 657.686L583.332 659.953L579.729 662.164L576.089 664.319L572.413 666.418L568.702 668.459L564.958 670.443L561.181 672.369L557.373 674.235L553.534 676.043L549.667 677.79L545.771 679.477L541.849 681.103L537.901 682.668L533.93 684.17L529.935 685.611L525.918 686.988L521.881 688.303L517.824 689.554L513.749 690.742L509.657 691.865L505.55 692.925L501.429 693.92L497.294 694.849L493.148 695.714L488.991 696.514L484.825 697.249L480.651 697.918L476.471 698.521L472.285 699.059L468.095 699.531L463.902 699.938L459.708 700.278L455.514 700.553L451.321 700.763L447.13 700.906L442.943 700.984L438.761 700.997L434.585 700.944L430.417 700.827L426.257 700.644L422.108 700.397L417.97 700.085L413.845 699.709L409.734 699.269L405.637 698.765L401.558 698.198L397.495 697.568L393.452 696.875L389.429 696.12L385.427 695.303L381.447 694.425L377.492 693.487L373.561 692.487L369.656 691.428L365.778 690.31L361.929 689.133L358.109 687.897L354.32 686.604L350.562 685.254L346.838 683.848L343.147 682.385L339.491 680.868L335.872 679.297L332.289 677.672L328.745 675.994L325.239 674.264L321.774 672.483L318.35 670.651L314.968 668.769L311.629 666.839L308.334 664.861L305.084 662.835L301.879 660.763L298.722 658.646L295.611 656.485L292.549 654.279L289.536 652.032L286.573 649.742L283.661 647.413L280.8 645.043L277.992 642.635L275.236 640.189L272.534 637.707L269.886 635.189L267.293 632.636L264.755 630.051L262.274 627.433L259.849 624.783L257.482 622.104L255.172 619.396L252.921 616.659L250.728 613.896L248.595 611.108L246.522 608.294L244.508 605.458L242.555 602.599L240.663 599.72L238.832 596.82L237.063 593.902L235.355 590.967L233.71 588.015L232.126 585.049L230.606 582.068L229.148 579.075L227.753 576.07L226.421 573.056L225.152 570.032L223.947 567L222.804 563.962L221.726 560.918L220.71 557.871L219.758 554.82L218.869 551.768L218.044 548.715L217.281 545.663L216.582 542.613L215.946 539.566L215.372 536.523L214.862 533.486L214.413 530.456L214.027 527.433L213.702 524.42L213.439 521.417L213.238 518.425L213.097 515.447L213.017 512.481L212.997 509.531L213.037 506.597L213.136 503.68L213.295 500.782L213.511 497.903L213.786 495.044L214.118 492.208L214.507 489.394L214.952 486.604L215.453 483.838L216.01 481.099L216.62 478.387L217.285 475.703L218.002 473.048L218.772 470.423L219.594 467.829L220.467 465.267L221.39 462.738L222.362 460.242L223.383 457.782L224.452 455.358L225.568 452.97L226.73 450.619L227.937 448.308L229.189 446.035L230.484 443.802L231.821 441.61L233.201 439.46L234.621 437.353L236.08 435.288L237.579 433.268L239.115 431.292L240.687 429.361L242.295 427.477L243.938 425.639L245.615 423.848L247.324 422.105L249.064 420.411L250.834 418.766L252.634 417.17L254.462 415.625L256.316 414.13L258.197 412.687L260.102 411.295L262.03 409.955L263.981 408.667L265.953 407.432L267.945 406.251L269.955 405.123L271.984 404.049L274.028 403.029L276.088 402.063L278.161 401.153L280.248 400.297L282.346 399.496L284.454 398.751L286.571 398.061L288.695 397.427L290.827 396.848L292.963 396.325L295.104 395.858L297.248 395.447L299.393 395.092L301.538 394.793L303.683 394.55L305.825 394.362L307.964 394.23L310.099 394.154L312.228 394.133L314.349 394.168L316.462 394.257L318.566 394.402L320.659 394.601L322.74 394.855L324.808 395.163L326.861 395.525L328.899 395.94L330.92 396.409L332.924 396.93L334.908 397.504L336.872 398.13L338.814 398.807L340.734 399.536L342.631 400.315L344.502 401.144L346.348 402.023L348.166 402.951L349.957 403.928L351.718 404.952L353.449 406.024L355.149 407.142L356.816 408.307L358.45 409.516L360.05 410.771L361.614 412.069L363.142 413.411L364.633 414.795L366.086 416.221L367.499 417.687L368.872 419.194L370.204 420.74L371.495 422.325L372.742 423.947L373.946 425.605L375.106 427.3L376.22 429.03L377.289 430.793L378.31 432.59L379.285 434.418L380.211 436.278L381.088 438.168L381.915 440.087L382.692 442.035L383.418 444.009L384.093 446.01L384.716 448.035L385.286 450.085L385.802 452.158L386.265 454.252L386.673 456.368L387.027 458.502L387.325 460.656L387.568 462.827L387.754 465.014L387.884 467.217L387.958 469.433L387.973 471.663L387.932 473.904L387.832 476.156L387.675 478.417L387.459 480.687L387.184 482.963L386.851 485.246L386.459 487.533L386.008 489.824L385.497 492.117L384.927 494.411L384.298 496.705L383.609 498.998L382.861 501.289L382.054 503.576L381.187 505.858L380.261 508.134L379.275 510.403L378.23 512.663L377.126 514.914L375.964 517.154L374.742 519.382L373.462 521.597L372.124 523.797L370.728 525.982L369.274 528.15L367.763 530.301L366.194 532.432L364.569 534.543L362.887 536.633L361.15 538.7L359.357 540.744L357.509 542.763L355.606 544.756L353.649 546.723L351.638 548.661L349.575 550.57L347.459 552.449L345.291 554.297L343.071 556.112L340.802 557.894L338.482 559.642L336.112 561.354L333.695 563.03L331.229 564.668L328.716 566.268L326.156 567.829L323.551 569.349L320.901 570.828L318.208 572.265L315.471 573.659L312.691 575.01L309.871 576.315L307.009 577.574L304.108 578.788L301.169 579.954L298.191 581.071L295.177 582.14L292.127 583.159L289.043 584.128L285.924 585.046L282.773 585.912L279.59 586.725L276.376 587.485L273.133 588.192L269.862 588.844L266.562 589.44L263.237 589.982L259.887 590.467L256.512 590.895L253.115 591.266L249.695 591.579L246.256 591.834L242.797 592.03L239.319 592.168L235.825 592.245L232.315 592.263L228.791 592.22L225.253 592.117L221.703 591.953L218.142 591.728L214.571 591.441L210.992 591.092L207.406 590.681L203.814 590.209L200.218 589.674L196.618 589.076L193.016 588.416L189.413 587.693L185.811 586.907L182.21 586.059L178.613 585.147L175.02 584.173L171.432 583.136L167.851 582.036L164.278 580.874L160.715 579.648L157.162 578.361L153.622 577.01L150.094 575.598L146.581 574.124L143.084 572.587L139.604 570.99L136.142 569.331L132.7 567.61L129.278 565.83L125.878 563.989L122.502 562.087L119.149 560.127L115.823 558.107L112.523 556.028L109.252 553.891L106.009 551.696L102.797 549.443L99.6169 547.134L96.4692 544.768L93.3554 542.347L90.2766 539.87L87.2339 537.339L84.2284 534.754L81.2612 532.116L78.3335 529.425L75.4462 526.682L72.6005 523.888L69.7973 521.044L67.0378 518.149L64.3228 515.206L61.6534 512.214L59.0306 509.176L56.4554 506.09L53.9286 502.959L51.4512 499.783L49.0242 496.563L46.6484 493.3L44.3246 489.995L42.0538 486.648L39.8368 483.262L37.6743 479.836L35.5672 476.371L33.5163 472.869L31.5223 469.331L29.5859 465.758L27.7079 462.15L25.8889 458.509L24.1297 454.836L22.4308 451.132L20.7929 447.398L19.2166 443.634L17.7025 439.843L16.2511 436.026L14.863 432.182L13.5387 428.315L12.2786 424.424L11.0833 420.51L9.95319 416.576L8.88867 412.623L7.89014 408.65L6.95797 404.66L6.0925 400.654L5.29404 396.633L4.56291 392.598L3.89936 388.551L3.30365 384.492L2.776 380.423L2.31662 376.345L1.92562 372.26L1.60321 368.168L1.34949 364.071L1.1645 359.97L1.0484 355.866L1.0012 351.761" stroke="black" stroke-width="2"/>
</svg>
