<svg width="764" height="269" viewBox="0 0 764 269" fill="none" xmlns="http://www.w3.org/2000/svg">
<path d="M763.5 134.5C763.5 152.863 752.931 170.427 733.661 186.469C714.393 202.509 686.482 216.975 651.949 229.134C582.886 253.451 487.445 268.5 382 268.5C276.555 268.5 181.114 253.451 112.051 229.134C77.5179 216.975 49.6071 202.509 30.3393 186.469C11.0687 170.427 0.5 152.863 0.5 134.5C0.5 116.137 11.0687 98.5726 30.3393 82.5308C49.6071 66.4915 77.5179 52.0248 112.051 39.8658C181.114 15.5493 276.555 0.5 382 0.5C487.445 0.5 582.886 15.5493 651.949 39.8658C686.482 52.0248 714.393 66.4915 733.661 82.5308C752.931 98.5726 763.5 116.137 763.5 134.5Z" stroke="url(#paint0_linear_16_271)"/>
<defs>
<linearGradient id="paint0_linear_16_271" x1="382" y1="0" x2="382" y2="269" gradientUnits="userSpaceOnUse">
<stop stop-opacity="0"/>
<stop offset="0.479167" stop-color="#ffffff"/>
</linearGradient>
</defs>
</svg>
