<svg width="881" height="269" viewBox="0 0 881 269" fill="none" xmlns="http://www.w3.org/2000/svg">
<path d="M880.5 134.5C880.5 152.832 868.33 170.393 846.091 186.448C823.862 202.494 791.665 216.966 751.835 229.128C672.179 253.449 562.105 268.5 440.5 268.5C318.895 268.5 208.821 253.449 129.165 229.128C89.3346 216.966 57.1376 202.494 34.9093 186.448C12.6695 170.393 0.5 152.832 0.5 134.5C0.5 116.168 12.6695 98.6067 34.9093 82.5519C57.1376 66.5055 89.3346 52.0341 129.165 39.8723C208.821 15.5507 318.895 0.5 440.5 0.5C562.105 0.5 672.179 15.5507 751.835 39.8723C791.665 52.0341 823.862 66.5055 846.091 82.5519C868.33 98.6067 880.5 116.168 880.5 134.5Z" stroke="url(#paint0_linear_16_270)"/>
<defs>
<linearGradient id="paint0_linear_16_270" x1="440.5" y1="0" x2="440.5" y2="269" gradientUnits="userSpaceOnUse">
<stop stop-opacity="0"/>
<stop offset="0.479167" stop-color="#ffffff"/>
</linearGradient>
</defs>
</svg>
