<svg width="695" height="269" viewBox="0 0 695 269" fill="none" xmlns="http://www.w3.org/2000/svg">
<path d="M694.5 134.5C694.5 152.882 684.877 170.45 667.354 186.485C649.831 202.52 624.448 216.983 593.039 229.14C530.225 253.452 443.414 268.5 347.5 268.5C251.586 268.5 164.775 253.452 101.961 229.14C70.5521 216.983 45.1686 202.52 27.6458 186.485C10.1234 170.45 0.5 152.882 0.5 134.5C0.5 116.118 10.1234 98.55 27.6458 82.5154C45.1686 66.4805 70.5521 52.0172 101.961 39.8604C164.775 15.5481 251.586 0.5 347.5 0.5C443.414 0.5 530.225 15.5481 593.039 39.8604C624.448 52.0172 649.831 66.4805 667.354 82.5154C684.877 98.55 694.5 116.118 694.5 134.5Z" stroke="url(#paint0_linear_16_272)"/>
<defs>
<linearGradient id="paint0_linear_16_272" x1="347.5" y1="0" x2="347.5" y2="269" gradientUnits="userSpaceOnUse">
<stop stop-opacity="0"/>
<stop offset="0.479167" stop-color="#ffffff"/>
</linearGradient>
</defs>
</svg>
